<svg xmlns="http://www.w3.org/2000/svg" viewBox="0 0 500 500"><g id="freepik--background-complete--inject-51"><rect y="382.4" width="500" height="0.25" style="fill:#ebebeb"></rect><rect x="416.78" y="398.49" width="33.12" height="0.25" style="fill:#ebebeb"></rect><rect x="322.53" y="401.21" width="8.69" height="0.25" style="fill:#ebebeb"></rect><rect x="396.59" y="389.21" width="19.19" height="0.25" style="fill:#ebebeb"></rect><rect x="52.46" y="390.89" width="43.19" height="0.25" style="fill:#ebebeb"></rect><rect x="104.56" y="390.89" width="6.33" height="0.25" style="fill:#ebebeb"></rect><rect x="131.47" y="395.11" width="93.68" height="0.25" style="fill:#ebebeb"></rect><path d="M237,337.8H43.91a5.71,5.71,0,0,1-5.7-5.71V60.66A5.71,5.71,0,0,1,43.91,55H237a5.71,5.71,0,0,1,5.71,5.71V332.09A5.71,5.71,0,0,1,237,337.8ZM43.91,55.2a5.46,5.46,0,0,0-5.45,5.46V332.09a5.46,5.46,0,0,0,5.45,5.46H237a5.47,5.47,0,0,0,5.46-5.46V60.66A5.47,5.47,0,0,0,237,55.2Z" style="fill:#ebebeb"></path><path d="M453.31,337.8H260.21a5.72,5.72,0,0,1-5.71-5.71V60.66A5.72,5.72,0,0,1,260.21,55h193.1A5.71,5.71,0,0,1,459,60.66V332.09A5.71,5.71,0,0,1,453.31,337.8ZM260.21,55.2a5.47,5.47,0,0,0-5.46,5.46V332.09a5.47,5.47,0,0,0,5.46,5.46h193.1a5.47,5.47,0,0,0,5.46-5.46V60.66a5.47,5.47,0,0,0-5.46-5.46Z" style="fill:#ebebeb"></path><rect x="61.12" y="299.43" width="36.9" height="82.97" style="fill:#ebebeb"></rect><rect x="115.87" y="259.41" width="36.9" height="122.99" style="fill:#ebebeb"></rect><rect x="170.62" y="229.39" width="36.9" height="153.01" style="fill:#ebebeb"></rect><rect x="225.37" y="299.43" width="36.9" height="82.97" style="fill:#ebebeb"></rect><rect x="280.11" y="269.42" width="36.9" height="112.98" style="fill:#ebebeb"></rect><rect x="334.86" y="219.39" width="36.9" height="163.01" style="fill:#ebebeb"></rect><rect x="389.61" y="129.33" width="36.9" height="253.07" style="fill:#ebebeb"></rect><polygon points="243.19 277.5 188.39 207.68 134.84 236.03 81.07 276.25 78.08 272.25 132.15 231.8 132.33 231.7 189.74 201.31 244.44 271 296.01 241.31 351.93 192.61 408.64 101.51 412.89 104.15 355.78 195.89 298.72 245.52 243.19 277.5" style="fill:#e0e0e0"></polygon><path d="M86.17,274.25a6.6,6.6,0,1,1-6.6-6.6A6.6,6.6,0,0,1,86.17,274.25Z" style="fill:#fafafa"></path><path d="M79.57,283.35a9.1,9.1,0,1,1,9.1-9.1A9.11,9.11,0,0,1,79.57,283.35Zm0-13.2a4.1,4.1,0,1,0,4.1,4.1A4.1,4.1,0,0,0,79.57,270.15Z" style="fill:#e0e0e0"></path><circle cx="133.5" cy="233.91" r="6.6" style="fill:#fafafa"></circle><path d="M133.5,243a9.1,9.1,0,1,1,9.09-9.1A9.11,9.11,0,0,1,133.5,243Zm0-13.19a4.1,4.1,0,1,0,4.09,4.09A4.1,4.1,0,0,0,133.5,229.82Z" style="fill:#e0e0e0"></path><path d="M195.66,204.53a6.6,6.6,0,1,1-6.59-6.6A6.6,6.6,0,0,1,195.66,204.53Z" style="fill:#fafafa"></path><path d="M189.07,213.63a9.1,9.1,0,1,1,9.09-9.1A9.11,9.11,0,0,1,189.07,213.63Zm0-13.2a4.1,4.1,0,1,0,4.09,4.1A4.11,4.11,0,0,0,189.07,200.43Z" style="fill:#e0e0e0"></path><path d="M250.41,273.09a6.6,6.6,0,1,1-6.59-6.6A6.6,6.6,0,0,1,250.41,273.09Z" style="fill:#fafafa"></path><path d="M243.82,282.19a9.1,9.1,0,1,1,9.09-9.1A9.11,9.11,0,0,1,243.82,282.19Zm0-13.2a4.1,4.1,0,1,0,4.09,4.1A4.11,4.11,0,0,0,243.82,269Z" style="fill:#e0e0e0"></path><circle cx="298.56" cy="242.71" r="6.6" style="fill:#fafafa"></circle><path d="M298.56,251.81a9.1,9.1,0,1,1,9.1-9.1A9.11,9.11,0,0,1,298.56,251.81Zm0-13.2a4.1,4.1,0,1,0,4.1,4.1A4.1,4.1,0,0,0,298.56,238.61Z" style="fill:#e0e0e0"></path><circle cx="353.79" cy="193.58" r="6.6" style="fill:#fafafa"></circle><path d="M353.79,202.67a9.1,9.1,0,1,1,9.1-9.09A9.1,9.1,0,0,1,353.79,202.67Zm0-13.19a4.1,4.1,0,1,0,4.1,4.1A4.1,4.1,0,0,0,353.79,189.48Z" style="fill:#e0e0e0"></path><circle cx="409.58" cy="104.52" r="6.6" style="fill:#fafafa"></circle><path d="M409.58,113.62a9.1,9.1,0,1,1,9.1-9.1A9.11,9.11,0,0,1,409.58,113.62Zm0-13.19a4.1,4.1,0,1,0,4.1,4.09A4.1,4.1,0,0,0,409.58,100.43Z" style="fill:#e0e0e0"></path></g><g id="freepik--Shadow--inject-51"><ellipse id="freepik--path--inject-51" cx="250" cy="416.24" rx="193.89" ry="11.32" style="fill:#f5f5f5"></ellipse></g></svg>
