<svg xmlns="http://www.w3.org/2000/svg" viewBox="0 0 500 500"><g id="freepik--background-simple--inject-43"><path d="M467.6,251.91c-4.93,41.8-24,90.41-62.14,112.73-57.59,33.75-52.77,85.64-165.19,108.2a231.26,231.26,0,0,1-49.84,4.71,194.66,194.66,0,0,1-24.47-2C94.51,465.12,46.43,415.46,28.79,355.5,5.58,276.66,51.93,225,82.65,193.94s53.23-128,163.57-151A223.75,223.75,0,0,1,297.45,38c39.26,1,82.08,13.86,111.71,40.76q3.33,3,6.5,6.28C456.84,127.33,474.34,194.92,467.6,251.91Z" style="fill:#0000FF"></path><path d="M467.6,251.91c-4.93,41.8-24,90.41-62.14,112.73-57.59,33.75-52.77,85.64-165.19,108.2a231.26,231.26,0,0,1-49.84,4.71,194.66,194.66,0,0,1-24.47-2C94.51,465.12,46.43,415.46,28.79,355.5,5.58,276.66,51.93,225,82.65,193.94s53.23-128,163.57-151A223.75,223.75,0,0,1,297.45,38c39.26,1,82.08,13.86,111.71,40.76q3.33,3,6.5,6.28C456.84,127.33,474.34,194.92,467.6,251.91Z" style="fill:#fff;opacity:0.7000000000000001"></path></g><g id="freepik--Floor--inject-43"><line x1="25.44" y1="464.1" x2="476.82" y2="464.1" style="fill:none;stroke:#263238;stroke-linecap:round;stroke-linejoin:round"></line></g><g id="freepik--Clouds--inject-43"><path d="M377.45,73.4h56.21s5.4-16.18-4.31-22.11-9.71,2.16-17.26-1.08c-6.24-2.67-7.41-7.75-9.15-13.13-.2-.61-.41-1.23-.63-1.85A25.21,25.21,0,0,0,400,30.45" style="fill:none;stroke:#b2b2b2;stroke-linecap:round;stroke-linejoin:round"></path><path d="M393.38,23.44C379.29,13.17,356,17,356,38.88c0,5.4-12.95,0-17.8,7s.54,11.33-5.93,13.49-7-3.24-15.11-2.7-7,8.09-9.71,10.25-2.69,1.08-8.63,1.62-7,4.85-7,4.85h75.69" style="fill:none;stroke:#b2b2b2;stroke-linecap:round;stroke-linejoin:round"></path><path d="M407.84,67.5s2.94-9.08-4.27-15.76-14.7-2.94-16.83,0-2.14,8.55-5.61,9.08S378.45,55,371,56.55s-4.54,9.08-8,10.68-3.47-4.27-8.28-2.4-4.54,5.34-4.54,5.34" style="fill:none;stroke:#b2b2b2;stroke-linecap:round;stroke-linejoin:round"></path><path d="M369.47,49.35a13.53,13.53,0,0,0-13.68-1.19c-7.74,3.57-4.17,11-7.74,12.79s-5.35-.29-9.81,1.79-4.17,5.05-4.17,5.05" style="fill:none;stroke:#b2b2b2;stroke-linecap:round;stroke-linejoin:round"></path><path d="M51.94,101.42A5.12,5.12,0,0,0,49,100.8c-3.14.21-2.72,3.15-3.77,4s-1,.42-3.36.63a2.86,2.86,0,0,0-2.73,1.88H94.35s1.36-4.07-.08-6.87" style="fill:none;stroke:#b2b2b2;stroke-linecap:round;stroke-linejoin:round"></path><path d="M92.67,98.7c-3.78-2.3-3.78.84-6.71-.42-2.43-1-2.88-3-3.56-5.1-.08-.24-.16-.48-.25-.72-3.18-8.86-18-9.47-18,1.42,0,2.1-5,0-6.92,2.73s.21,4.4-2.31,5.24" style="fill:none;stroke:#b2b2b2;stroke-linecap:round;stroke-linejoin:round"></path><path d="M84.3,105a6.15,6.15,0,0,0-1.66-6.13c-2.8-2.6-5.71-1.14-6.54,0s-.83,3.32-2.19,3.53-1-2.28-3.94-1.66-1.77,3.53-3.12,4.16-1.35-1.67-3.22-.94-1.77,2.08-1.77,2.08" style="fill:none;stroke:#b2b2b2;stroke-linecap:round;stroke-linejoin:round"></path><path d="M69.38,98a5.26,5.26,0,0,0-5.32-.46c-3,1.39-1.62,4.28-3,5s-2.08-.11-3.81.7-1.62,2-1.62,2" style="fill:none;stroke:#b2b2b2;stroke-linecap:round;stroke-linejoin:round"></path><path d="M218.68,45.52a5.12,5.12,0,0,0-2.91-.62c-3.14.21-2.72,3.15-3.77,4s-1.05.42-3.36.62a2.86,2.86,0,0,0-2.73,1.89h55.18s1.35-4.07-.08-6.87" style="fill:none;stroke:#b2b2b2;stroke-linecap:round;stroke-linejoin:round"></path><path d="M259.41,42.8c-3.78-2.31-3.78.84-6.72-.42-2.42-1-2.88-3-3.55-5.1-.08-.24-.16-.48-.25-.72-3.19-8.86-18-9.48-18,1.42,0,2.09-5,0-6.93,2.72s.21,4.41-2.3,5.25" style="fill:none;stroke:#b2b2b2;stroke-linecap:round;stroke-linejoin:round"></path><path d="M251,49.11A6.15,6.15,0,0,0,249.38,43c-2.8-2.6-5.71-1.15-6.54,0s-.84,3.32-2.19,3.53-1-2.29-3.94-1.66-1.77,3.53-3.12,4.15-1.35-1.66-3.22-.93-1.77,2.08-1.77,2.08" style="fill:none;stroke:#b2b2b2;stroke-linecap:round;stroke-linejoin:round"></path><path d="M236.12,42.05a5.26,5.26,0,0,0-5.32-.46c-3,1.38-1.62,4.28-3,5s-2.08-.12-3.82.69-1.62,2-1.62,2" style="fill:none;stroke:#b2b2b2;stroke-linecap:round;stroke-linejoin:round"></path></g><g id="freepik--Building--inject-43"><rect x="236.01" y="81.07" width="59.25" height="320.21" style="fill:#263238;stroke:#263238;stroke-linecap:round;stroke-linejoin:round"></rect><rect x="280.77" y="81.07" width="50.02" height="320.21" style="fill:#fff;stroke:#263238;stroke-linecap:round;stroke-linejoin:round"></rect><rect x="282.64" y="84.51" width="45.81" height="15.84" style="fill:#fff;stroke:#263238;stroke-linecap:round;stroke-linejoin:round"></rect><line x1="288.84" y1="86.72" x2="288.84" y2="98.23" style="fill:none;stroke:#263238;stroke-linecap:round;stroke-linejoin:round"></line><line x1="295.64" y1="86.72" x2="295.64" y2="98.23" style="fill:none;stroke:#263238;stroke-linecap:round;stroke-linejoin:round"></line><line x1="302.43" y1="86.72" x2="302.43" y2="98.23" style="fill:none;stroke:#263238;stroke-linecap:round;stroke-linejoin:round"></line><line x1="309.23" y1="86.72" x2="309.23" y2="98.23" style="fill:none;stroke:#263238;stroke-linecap:round;stroke-linejoin:round"></line><line x1="316.03" y1="86.72" x2="316.03" y2="98.23" style="fill:none;stroke:#263238;stroke-linecap:round;stroke-linejoin:round"></line><line x1="322.82" y1="86.72" x2="322.82" y2="98.23" style="fill:none;stroke:#263238;stroke-linecap:round;stroke-linejoin:round"></line><rect x="238.67" y="84.51" width="39.27" height="15.84" style="fill:#fff;stroke:#263238;stroke-linecap:round;stroke-linejoin:round"></rect><line x1="243.98" y1="86.72" x2="243.98" y2="98.23" style="fill:none;stroke:#263238;stroke-linecap:round;stroke-linejoin:round"></line><line x1="249.81" y1="86.72" x2="249.81" y2="98.23" style="fill:none;stroke:#263238;stroke-linecap:round;stroke-linejoin:round"></line><line x1="255.63" y1="86.72" x2="255.63" y2="98.23" style="fill:none;stroke:#263238;stroke-linecap:round;stroke-linejoin:round"></line><line x1="261.46" y1="86.72" x2="261.46" y2="98.23" style="fill:none;stroke:#263238;stroke-linecap:round;stroke-linejoin:round"></line><line x1="267.29" y1="86.72" x2="267.29" y2="98.23" style="fill:none;stroke:#263238;stroke-linecap:round;stroke-linejoin:round"></line><line x1="273.11" y1="86.72" x2="273.11" y2="98.23" style="fill:none;stroke:#263238;stroke-linecap:round;stroke-linejoin:round"></line><rect x="113.57" y="123.07" width="108.11" height="278.2" style="fill:#fff;stroke:#263238;stroke-linecap:round;stroke-linejoin:round"></rect><rect x="120.19" y="133.71" width="40.14" height="256.94" style="fill:#263238;stroke:#263238;stroke-linecap:round;stroke-linejoin:round"></rect><rect x="165.91" y="123.07" width="108.11" height="278.2" style="fill:#fff;stroke:#263238;stroke-linecap:round;stroke-linejoin:round"></rect><rect x="174.81" y="133.71" width="90.3" height="256.94" style="fill:#fff;stroke:#263238;stroke-linecap:round;stroke-linejoin:round"></rect><rect x="178.99" y="144.08" width="18.5" height="9.68" style="fill:#fff;stroke:#263238;stroke-linecap:round;stroke-linejoin:round"></rect><rect x="200.14" y="144.08" width="18.5" height="9.68" style="fill:#fff;stroke:#263238;stroke-linecap:round;stroke-linejoin:round"></rect><rect x="221.28" y="144.08" width="18.5" height="9.68" style="fill:#fff;stroke:#263238;stroke-linecap:round;stroke-linejoin:round"></rect><rect x="242.43" y="144.08" width="18.5" height="9.68" style="fill:#fff;stroke:#263238;stroke-linecap:round;stroke-linejoin:round"></rect><rect x="178.99" y="161.29" width="18.5" height="9.68" style="fill:#fff;stroke:#263238;stroke-linecap:round;stroke-linejoin:round"></rect><rect x="200.14" y="161.29" width="18.5" height="9.68" style="fill:#fff;stroke:#263238;stroke-linecap:round;stroke-linejoin:round"></rect><rect x="221.28" y="161.29" width="18.5" height="9.68" style="fill:#fff;stroke:#263238;stroke-linecap:round;stroke-linejoin:round"></rect><rect x="242.43" y="161.29" width="18.5" height="9.68" style="fill:#fff;stroke:#263238;stroke-linecap:round;stroke-linejoin:round"></rect><rect x="178.99" y="178.51" width="18.5" height="9.68" style="fill:#fff;stroke:#263238;stroke-linecap:round;stroke-linejoin:round"></rect><rect x="200.14" y="178.51" width="18.5" height="9.68" style="fill:#fff;stroke:#263238;stroke-linecap:round;stroke-linejoin:round"></rect><rect x="221.28" y="178.51" width="18.5" height="9.68" style="fill:#fff;stroke:#263238;stroke-linecap:round;stroke-linejoin:round"></rect><rect x="242.43" y="178.51" width="18.5" height="9.68" style="fill:#fff;stroke:#263238;stroke-linecap:round;stroke-linejoin:round"></rect><rect x="178.99" y="195.72" width="18.5" height="9.68" style="fill:#fff;stroke:#263238;stroke-linecap:round;stroke-linejoin:round"></rect><rect x="200.14" y="195.72" width="18.5" height="9.68" style="fill:#fff;stroke:#263238;stroke-linecap:round;stroke-linejoin:round"></rect><rect x="221.28" y="195.72" width="18.5" height="9.68" style="fill:#fff;stroke:#263238;stroke-linecap:round;stroke-linejoin:round"></rect><rect x="242.43" y="195.72" width="18.5" height="9.68" style="fill:#fff;stroke:#263238;stroke-linecap:round;stroke-linejoin:round"></rect><rect x="178.99" y="212.94" width="18.5" height="9.68" style="fill:#fff;stroke:#263238;stroke-linecap:round;stroke-linejoin:round"></rect><rect x="200.14" y="212.94" width="18.5" height="9.68" style="fill:#fff;stroke:#263238;stroke-linecap:round;stroke-linejoin:round"></rect><rect x="221.28" y="212.94" width="18.5" height="9.68" style="fill:#fff;stroke:#263238;stroke-linecap:round;stroke-linejoin:round"></rect><rect x="242.43" y="212.94" width="18.5" height="9.68" style="fill:#fff;stroke:#263238;stroke-linecap:round;stroke-linejoin:round"></rect><rect x="178.99" y="230.16" width="18.5" height="9.68" style="fill:#fff;stroke:#263238;stroke-linecap:round;stroke-linejoin:round"></rect><rect x="200.14" y="230.16" width="18.5" height="9.68" style="fill:#fff;stroke:#263238;stroke-linecap:round;stroke-linejoin:round"></rect><rect x="221.28" y="230.16" width="18.5" height="9.68" style="fill:#fff;stroke:#263238;stroke-linecap:round;stroke-linejoin:round"></rect><rect x="242.43" y="230.16" width="18.5" height="9.68" style="fill:#fff;stroke:#263238;stroke-linecap:round;stroke-linejoin:round"></rect><rect x="178.99" y="247.37" width="18.5" height="9.68" style="fill:#fff;stroke:#263238;stroke-linecap:round;stroke-linejoin:round"></rect><rect x="200.14" y="247.37" width="18.5" height="9.68" style="fill:#fff;stroke:#263238;stroke-linecap:round;stroke-linejoin:round"></rect><rect x="221.28" y="247.37" width="18.5" height="9.68" style="fill:#fff;stroke:#263238;stroke-linecap:round;stroke-linejoin:round"></rect><rect x="242.43" y="247.37" width="18.5" height="9.68" style="fill:#fff;stroke:#263238;stroke-linecap:round;stroke-linejoin:round"></rect><rect x="178.99" y="264.59" width="18.5" height="9.68" style="fill:#fff;stroke:#263238;stroke-linecap:round;stroke-linejoin:round"></rect><rect x="200.14" y="264.59" width="18.5" height="9.68" style="fill:#fff;stroke:#263238;stroke-linecap:round;stroke-linejoin:round"></rect><rect x="221.28" y="264.59" width="18.5" height="9.68" style="fill:#fff;stroke:#263238;stroke-linecap:round;stroke-linejoin:round"></rect><rect x="242.43" y="264.59" width="18.5" height="9.68" style="fill:#fff;stroke:#263238;stroke-linecap:round;stroke-linejoin:round"></rect><rect x="178.99" y="281.8" width="18.5" height="9.68" style="fill:#fff;stroke:#263238;stroke-linecap:round;stroke-linejoin:round"></rect><rect x="200.14" y="281.8" width="18.5" height="9.68" style="fill:#fff;stroke:#263238;stroke-linecap:round;stroke-linejoin:round"></rect><rect x="221.28" y="281.8" width="18.5" height="9.68" style="fill:#fff;stroke:#263238;stroke-linecap:round;stroke-linejoin:round"></rect><rect x="242.43" y="281.8" width="18.5" height="9.68" style="fill:#fff;stroke:#263238;stroke-linecap:round;stroke-linejoin:round"></rect><rect x="178.99" y="299.02" width="18.5" height="9.68" style="fill:#fff;stroke:#263238;stroke-linecap:round;stroke-linejoin:round"></rect><rect x="200.14" y="299.02" width="18.5" height="9.68" style="fill:#fff;stroke:#263238;stroke-linecap:round;stroke-linejoin:round"></rect><rect x="221.28" y="299.02" width="18.5" height="9.68" style="fill:#fff;stroke:#263238;stroke-linecap:round;stroke-linejoin:round"></rect><rect x="242.43" y="299.02" width="18.5" height="9.68" style="fill:#fff;stroke:#263238;stroke-linecap:round;stroke-linejoin:round"></rect><rect x="178.99" y="316.23" width="18.5" height="9.68" style="fill:#fff;stroke:#263238;stroke-linecap:round;stroke-linejoin:round"></rect><rect x="200.14" y="316.23" width="18.5" height="9.68" style="fill:#fff;stroke:#263238;stroke-linecap:round;stroke-linejoin:round"></rect><rect x="221.28" y="316.23" width="18.5" height="9.68" style="fill:#fff;stroke:#263238;stroke-linecap:round;stroke-linejoin:round"></rect><rect x="242.43" y="316.23" width="18.5" height="9.68" style="fill:#fff;stroke:#263238;stroke-linecap:round;stroke-linejoin:round"></rect><rect x="178.99" y="333.45" width="18.5" height="9.68" style="fill:#fff;stroke:#263238;stroke-linecap:round;stroke-linejoin:round"></rect><rect x="200.14" y="333.45" width="18.5" height="9.68" style="fill:#fff;stroke:#263238;stroke-linecap:round;stroke-linejoin:round"></rect><rect x="221.28" y="333.45" width="18.5" height="9.68" style="fill:#fff;stroke:#263238;stroke-linecap:round;stroke-linejoin:round"></rect><rect x="242.43" y="333.45" width="18.5" height="9.68" style="fill:#fff;stroke:#263238;stroke-linecap:round;stroke-linejoin:round"></rect><rect x="178.99" y="350.67" width="18.5" height="9.68" style="fill:#fff;stroke:#263238;stroke-linecap:round;stroke-linejoin:round"></rect><rect x="200.14" y="350.67" width="18.5" height="9.68" style="fill:#fff;stroke:#263238;stroke-linecap:round;stroke-linejoin:round"></rect><rect x="221.28" y="350.67" width="18.5" height="9.68" style="fill:#fff;stroke:#263238;stroke-linecap:round;stroke-linejoin:round"></rect><rect x="242.43" y="350.67" width="18.5" height="9.68" style="fill:#fff;stroke:#263238;stroke-linecap:round;stroke-linejoin:round"></rect><rect x="178.99" y="367.88" width="18.5" height="9.68" style="fill:#fff;stroke:#263238;stroke-linecap:round;stroke-linejoin:round"></rect><rect x="200.14" y="367.88" width="18.5" height="9.68" style="fill:#fff;stroke:#263238;stroke-linecap:round;stroke-linejoin:round"></rect><rect x="221.28" y="367.88" width="18.5" height="9.68" style="fill:#fff;stroke:#263238;stroke-linecap:round;stroke-linejoin:round"></rect><rect x="242.43" y="367.88" width="18.5" height="9.68" style="fill:#fff;stroke:#263238;stroke-linecap:round;stroke-linejoin:round"></rect><rect x="126.75" y="144.08" width="6.2" height="9.68" style="fill:#fff;stroke:#263238;stroke-linecap:round;stroke-linejoin:round"></rect><rect x="133.84" y="144.08" width="6.2" height="9.68" style="fill:#fff;stroke:#263238;stroke-linecap:round;stroke-linejoin:round"></rect><rect x="140.92" y="144.08" width="6.2" height="9.68" style="fill:#fff;stroke:#263238;stroke-linecap:round;stroke-linejoin:round"></rect><rect x="148" y="144.08" width="6.2" height="9.68" style="fill:#fff;stroke:#263238;stroke-linecap:round;stroke-linejoin:round"></rect><rect x="126.75" y="161.29" width="6.2" height="9.68" style="fill:#fff;stroke:#263238;stroke-linecap:round;stroke-linejoin:round"></rect><rect x="133.84" y="161.29" width="6.2" height="9.68" style="fill:#fff;stroke:#263238;stroke-linecap:round;stroke-linejoin:round"></rect><rect x="140.92" y="161.29" width="6.2" height="9.68" style="fill:#fff;stroke:#263238;stroke-linecap:round;stroke-linejoin:round"></rect><rect x="148" y="161.29" width="6.2" height="9.68" style="fill:#fff;stroke:#263238;stroke-linecap:round;stroke-linejoin:round"></rect><rect x="126.75" y="178.51" width="6.2" height="9.68" style="fill:#fff;stroke:#263238;stroke-linecap:round;stroke-linejoin:round"></rect><rect x="133.84" y="178.51" width="6.2" height="9.68" style="fill:#fff;stroke:#263238;stroke-linecap:round;stroke-linejoin:round"></rect><rect x="140.92" y="178.51" width="6.2" height="9.68" style="fill:#fff;stroke:#263238;stroke-linecap:round;stroke-linejoin:round"></rect><rect x="148" y="178.51" width="6.2" height="9.68" style="fill:#fff;stroke:#263238;stroke-linecap:round;stroke-linejoin:round"></rect><rect x="126.75" y="195.72" width="6.2" height="9.68" style="fill:#fff;stroke:#263238;stroke-linecap:round;stroke-linejoin:round"></rect><rect x="133.84" y="195.72" width="6.2" height="9.68" style="fill:#fff;stroke:#263238;stroke-linecap:round;stroke-linejoin:round"></rect><rect x="140.92" y="195.72" width="6.2" height="9.68" style="fill:#fff;stroke:#263238;stroke-linecap:round;stroke-linejoin:round"></rect><rect x="148" y="195.72" width="6.2" height="9.68" style="fill:#fff;stroke:#263238;stroke-linecap:round;stroke-linejoin:round"></rect><rect x="126.75" y="212.94" width="6.2" height="9.68" style="fill:#fff;stroke:#263238;stroke-linecap:round;stroke-linejoin:round"></rect><rect x="133.84" y="212.94" width="6.2" height="9.68" style="fill:#fff;stroke:#263238;stroke-linecap:round;stroke-linejoin:round"></rect><rect x="140.92" y="212.94" width="6.2" height="9.68" style="fill:#fff;stroke:#263238;stroke-linecap:round;stroke-linejoin:round"></rect><rect x="148" y="212.94" width="6.2" height="9.68" style="fill:#fff;stroke:#263238;stroke-linecap:round;stroke-linejoin:round"></rect><rect x="126.75" y="230.16" width="6.2" height="9.68" style="fill:#fff;stroke:#263238;stroke-linecap:round;stroke-linejoin:round"></rect><rect x="133.84" y="230.16" width="6.2" height="9.68" style="fill:#fff;stroke:#263238;stroke-linecap:round;stroke-linejoin:round"></rect><rect x="140.92" y="230.16" width="6.2" height="9.68" style="fill:#fff;stroke:#263238;stroke-linecap:round;stroke-linejoin:round"></rect><rect x="148" y="230.16" width="6.2" height="9.68" style="fill:#fff;stroke:#263238;stroke-linecap:round;stroke-linejoin:round"></rect><rect x="126.75" y="247.37" width="6.2" height="9.68" style="fill:#fff;stroke:#263238;stroke-linecap:round;stroke-linejoin:round"></rect><rect x="133.84" y="247.37" width="6.2" height="9.68" style="fill:#fff;stroke:#263238;stroke-linecap:round;stroke-linejoin:round"></rect><rect x="140.92" y="247.37" width="6.2" height="9.68" style="fill:#fff;stroke:#263238;stroke-linecap:round;stroke-linejoin:round"></rect><rect x="148" y="247.37" width="6.2" height="9.68" style="fill:#fff;stroke:#263238;stroke-linecap:round;stroke-linejoin:round"></rect><rect x="126.75" y="264.59" width="6.2" height="9.68" style="fill:#fff;stroke:#263238;stroke-linecap:round;stroke-linejoin:round"></rect><rect x="133.84" y="264.59" width="6.2" height="9.68" style="fill:#fff;stroke:#263238;stroke-linecap:round;stroke-linejoin:round"></rect><rect x="140.92" y="264.59" width="6.2" height="9.68" style="fill:#fff;stroke:#263238;stroke-linecap:round;stroke-linejoin:round"></rect><rect x="148" y="264.59" width="6.2" height="9.68" style="fill:#fff;stroke:#263238;stroke-linecap:round;stroke-linejoin:round"></rect><rect x="126.75" y="281.8" width="6.2" height="9.68" style="fill:#fff;stroke:#263238;stroke-linecap:round;stroke-linejoin:round"></rect><rect x="133.84" y="281.8" width="6.2" height="9.68" style="fill:#fff;stroke:#263238;stroke-linecap:round;stroke-linejoin:round"></rect><rect x="140.92" y="281.8" width="6.2" height="9.68" style="fill:#fff;stroke:#263238;stroke-linecap:round;stroke-linejoin:round"></rect><rect x="148" y="281.8" width="6.2" height="9.68" style="fill:#fff;stroke:#263238;stroke-linecap:round;stroke-linejoin:round"></rect><rect x="126.75" y="299.02" width="6.2" height="9.68" style="fill:#fff;stroke:#263238;stroke-linecap:round;stroke-linejoin:round"></rect><rect x="133.84" y="299.02" width="6.2" height="9.68" style="fill:#fff;stroke:#263238;stroke-linecap:round;stroke-linejoin:round"></rect><rect x="140.92" y="299.02" width="6.2" height="9.68" style="fill:#fff;stroke:#263238;stroke-linecap:round;stroke-linejoin:round"></rect><rect x="148" y="299.02" width="6.2" height="9.68" style="fill:#fff;stroke:#263238;stroke-linecap:round;stroke-linejoin:round"></rect><rect x="126.75" y="316.23" width="6.2" height="9.68" style="fill:#fff;stroke:#263238;stroke-linecap:round;stroke-linejoin:round"></rect><rect x="133.84" y="316.23" width="6.2" height="9.68" style="fill:#fff;stroke:#263238;stroke-linecap:round;stroke-linejoin:round"></rect><rect x="140.92" y="316.23" width="6.2" height="9.68" style="fill:#fff;stroke:#263238;stroke-linecap:round;stroke-linejoin:round"></rect><rect x="148" y="316.23" width="6.2" height="9.68" style="fill:#fff;stroke:#263238;stroke-linecap:round;stroke-linejoin:round"></rect><rect x="126.75" y="333.45" width="6.2" height="9.68" style="fill:#fff;stroke:#263238;stroke-linecap:round;stroke-linejoin:round"></rect><rect x="133.84" y="333.45" width="6.2" height="9.68" style="fill:#fff;stroke:#263238;stroke-linecap:round;stroke-linejoin:round"></rect><rect x="140.92" y="333.45" width="6.2" height="9.68" style="fill:#fff;stroke:#263238;stroke-linecap:round;stroke-linejoin:round"></rect><rect x="148" y="333.45" width="6.2" height="9.68" style="fill:#fff;stroke:#263238;stroke-linecap:round;stroke-linejoin:round"></rect><rect x="126.75" y="350.67" width="6.2" height="9.68" style="fill:#fff;stroke:#263238;stroke-linecap:round;stroke-linejoin:round"></rect><rect x="133.84" y="350.67" width="6.2" height="9.68" style="fill:#fff;stroke:#263238;stroke-linecap:round;stroke-linejoin:round"></rect><rect x="140.92" y="350.67" width="6.2" height="9.68" style="fill:#fff;stroke:#263238;stroke-linecap:round;stroke-linejoin:round"></rect><rect x="148" y="350.67" width="6.2" height="9.68" style="fill:#fff;stroke:#263238;stroke-linecap:round;stroke-linejoin:round"></rect><rect x="126.75" y="367.88" width="6.2" height="9.68" style="fill:#fff;stroke:#263238;stroke-linecap:round;stroke-linejoin:round"></rect><rect x="133.84" y="367.88" width="6.2" height="9.68" style="fill:#fff;stroke:#263238;stroke-linecap:round;stroke-linejoin:round"></rect><rect x="140.92" y="367.88" width="6.2" height="9.68" style="fill:#fff;stroke:#263238;stroke-linecap:round;stroke-linejoin:round"></rect><rect x="148" y="367.88" width="6.2" height="9.68" style="fill:#fff;stroke:#263238;stroke-linecap:round;stroke-linejoin:round"></rect><rect x="73.09" y="427.16" width="265.86" height="37.43" style="fill:#263238;stroke:#263238;stroke-linecap:round;stroke-linejoin:round"></rect><rect x="195.19" y="439.52" width="6.9" height="25.06" style="fill:#fff;stroke:#263238;stroke-linecap:round;stroke-linejoin:round"></rect><rect x="163.46" y="439.52" width="6.9" height="25.06" style="fill:#fff;stroke:#263238;stroke-linecap:round;stroke-linejoin:round"></rect><rect x="131.73" y="439.52" width="6.9" height="25.06" style="fill:#fff;stroke:#263238;stroke-linecap:round;stroke-linejoin:round"></rect><rect x="100" y="439.52" width="6.9" height="25.06" style="fill:#fff;stroke:#263238;stroke-linecap:round;stroke-linejoin:round"></rect><rect x="68.28" y="439.52" width="6.9" height="25.06" style="fill:#fff;stroke:#263238;stroke-linecap:round;stroke-linejoin:round"></rect><rect x="241.94" y="439.52" width="6.9" height="25.06" style="fill:#fff;stroke:#263238;stroke-linecap:round;stroke-linejoin:round"></rect><rect x="288.7" y="439.52" width="6.9" height="25.06" style="fill:#fff;stroke:#263238;stroke-linecap:round;stroke-linejoin:round"></rect><rect x="335.45" y="439.52" width="6.9" height="25.06" style="fill:#fff;stroke:#263238;stroke-linecap:round;stroke-linejoin:round"></rect><rect x="162.41" y="373.33" width="181.69" height="69.41" style="fill:#fff;stroke:#263238;stroke-linecap:round;stroke-linejoin:round"></rect><rect x="58.95" y="373.33" width="132.79" height="69.41" style="fill:#fff;stroke:#263238;stroke-linecap:round;stroke-linejoin:round"></rect><rect x="64.71" y="385.48" width="121.26" height="40.62" style="fill:#263238;stroke:#263238;stroke-linecap:round;stroke-linejoin:round"></rect><rect x="196.47" y="385.54" width="25.21" height="15.74" style="fill:#fff;stroke:#263238;stroke-linecap:round;stroke-linejoin:round"></rect><rect x="226.04" y="385.54" width="25.21" height="15.74" style="fill:#fff;stroke:#263238;stroke-linecap:round;stroke-linejoin:round"></rect><rect x="255.6" y="385.54" width="25.21" height="15.74" style="fill:#fff;stroke:#263238;stroke-linecap:round;stroke-linejoin:round"></rect><rect x="285.16" y="385.54" width="25.21" height="15.74" style="fill:#fff;stroke:#263238;stroke-linecap:round;stroke-linejoin:round"></rect><rect x="314.72" y="385.54" width="25.21" height="15.74" style="fill:#fff;stroke:#263238;stroke-linecap:round;stroke-linejoin:round"></rect><rect x="196.47" y="410.45" width="25.21" height="15.74" style="fill:#fff;stroke:#263238;stroke-linecap:round;stroke-linejoin:round"></rect><rect x="226.04" y="410.45" width="25.21" height="15.74" style="fill:#fff;stroke:#263238;stroke-linecap:round;stroke-linejoin:round"></rect><rect x="255.6" y="410.45" width="25.21" height="15.74" style="fill:#fff;stroke:#263238;stroke-linecap:round;stroke-linejoin:round"></rect><rect x="285.16" y="410.45" width="25.21" height="15.74" style="fill:#fff;stroke:#263238;stroke-linecap:round;stroke-linejoin:round"></rect><rect x="314.72" y="410.45" width="25.21" height="15.74" style="fill:#fff;stroke:#263238;stroke-linecap:round;stroke-linejoin:round"></rect><rect x="66.02" y="385.54" width="20.33" height="15.74" style="fill:#fff;stroke:#263238;stroke-linecap:round;stroke-linejoin:round"></rect><rect x="89.85" y="385.54" width="20.33" height="15.74" style="fill:#fff;stroke:#263238;stroke-linecap:round;stroke-linejoin:round"></rect><rect x="113.69" y="385.54" width="20.33" height="15.74" style="fill:#fff;stroke:#263238;stroke-linecap:round;stroke-linejoin:round"></rect><rect x="137.53" y="385.54" width="20.33" height="15.74" style="fill:#fff;stroke:#263238;stroke-linecap:round;stroke-linejoin:round"></rect><rect x="161.37" y="385.54" width="20.33" height="15.74" style="fill:#fff;stroke:#263238;stroke-linecap:round;stroke-linejoin:round"></rect><rect x="66.02" y="410.45" width="20.33" height="15.74" style="fill:#fff;stroke:#263238;stroke-linecap:round;stroke-linejoin:round"></rect><rect x="89.85" y="410.45" width="20.33" height="15.74" style="fill:#fff;stroke:#263238;stroke-linecap:round;stroke-linejoin:round"></rect><rect x="113.69" y="410.45" width="20.33" height="15.74" style="fill:#fff;stroke:#263238;stroke-linecap:round;stroke-linejoin:round"></rect><rect x="137.53" y="410.45" width="20.33" height="15.74" style="fill:#fff;stroke:#263238;stroke-linecap:round;stroke-linejoin:round"></rect><rect x="161.37" y="410.45" width="20.33" height="15.74" style="fill:#fff;stroke:#263238;stroke-linecap:round;stroke-linejoin:round"></rect><rect x="111.84" y="362.63" width="106.84" height="11.35" style="fill:#263238;stroke:#263238;stroke-linecap:round;stroke-linejoin:round"></rect><rect x="182.62" y="362.63" width="106.84" height="11.35" style="fill:#fff;stroke:#263238;stroke-linecap:round;stroke-linejoin:round"></rect></g><g id="freepik--magnifying-glass--inject-43"><path d="M457.51,69.81l-56.75,56.75a13.23,13.23,0,1,1-18.71-18.72l56.74-56.75a13.24,13.24,0,0,1,18.72,18.72Z" style="fill:#263238;stroke:#263238;stroke-linecap:round;stroke-linejoin:round"></path><path d="M391.12,128.4,359.55,160a7.72,7.72,0,0,1-10.92-10.92l31.57-31.56a7.72,7.72,0,0,1,10.92,10.91Z" style="fill:#fff;stroke:#263238;stroke-linecap:round;stroke-linejoin:round"></path><path d="M267.1,154.51a61.51,61.51,0,1,0,87,0A61.51,61.51,0,0,0,267.1,154.51Zm79.34,79.34a50.69,50.69,0,1,1,0-71.69A50.69,50.69,0,0,1,346.44,233.85Z" style="fill:#263238;stroke:#263238;stroke-linecap:round;stroke-linejoin:round"></path><circle cx="313.39" cy="195.21" r="50.69" style="fill:#fff;opacity:0.56"></circle><path d="M269.9,151.71a61.51,61.51,0,1,0,87,0A61.51,61.51,0,0,0,269.9,151.71Zm79.34,79.34a50.69,50.69,0,1,1,0-71.69A50.69,50.69,0,0,1,349.24,231.05Z" style="fill:#fff;stroke:#263238;stroke-linecap:round;stroke-linejoin:round"></path></g><g id="freepik--Shield--inject-43"><path d="M236.61,175.68a195,195,0,0,1-77-43.76,10.8,10.8,0,0,0-14.83,0,194.89,194.89,0,0,1-77,43.76,10.8,10.8,0,0,0-7.66,11.26c2,23.31,14.07,88,84.91,149.83a10.82,10.82,0,0,0,14.23,0c70.84-61.8,82.91-126.52,84.91-149.83A10.78,10.78,0,0,0,236.61,175.68Z" style="fill:#0000FF;stroke:#263238;stroke-linecap:round;stroke-linejoin:round"></path><path d="M220.36,185.37a160.82,160.82,0,0,1-60.83-34.57,10.79,10.79,0,0,0-14.56,0,161,161,0,0,1-60.83,34.57A10.82,10.82,0,0,0,76.5,196.8c2.06,20.37,12.91,71.56,68.58,120.77a10.83,10.83,0,0,0,14.33,0c55.68-49.21,66.52-100.4,68.59-120.77A10.85,10.85,0,0,0,220.36,185.37Z" style="fill:#263238;stroke:#263238;stroke-miterlimit:10"></path><path d="M220.36,185.37a163.14,163.14,0,0,1-50.76-26.13,10.8,10.8,0,0,0-17.35,8.6V299.33A10.8,10.8,0,0,0,170.66,307c45.93-45.8,55.42-91.3,57.34-110.21A10.85,10.85,0,0,0,220.36,185.37Z" style="fill:#fff;stroke:#263238;stroke-linecap:round;stroke-linejoin:round"></path><circle cx="153.64" cy="228.55" r="22.22" transform="translate(-116.61 175.58) rotate(-45)" style="fill:#fff;stroke:#263238;stroke-linecap:round;stroke-linejoin:round;stroke-width:3px"></circle><path d="M155.22,237.87a5,5,0,0,1-3.75-1.74l-9.75-11.38a5,5,0,0,1,7.58-6.5l6,7.07,20-22.32a5,5,0,1,1,7.43,6.66L159,236.21a5,5,0,0,1-3.71,1.66Z" style="fill:#0000FF"></path><path d="M179.11,202.84a3.48,3.48,0,0,1,2.59,5.82l-23.84,26.55a3.49,3.49,0,0,1-2.6,1.16h0a3.51,3.51,0,0,1-2.61-1.22l-9.75-11.38a3.49,3.49,0,1,1,5.3-4.54l7.16,8.36L176.51,204a3.47,3.47,0,0,1,2.6-1.16m0-3h0a6.53,6.53,0,0,0-4.83,2.15l-18.9,21-4.94-5.76a6.49,6.49,0,1,0-9.86,8.45l9.76,11.37a6.47,6.47,0,0,0,4.85,2.27h.07a6.49,6.49,0,0,0,4.83-2.15l23.84-26.55a6.49,6.49,0,0,0-4.82-10.83Z" style="fill:#263238"></path></g></svg>
