<?xml version="1.0" encoding="UTF-8"?>
<!DOCTYPE svg PUBLIC "-//W3C//DTD SVG 1.1//EN" "http://www.w3.org/Graphics/SVG/1.1/DTD/svg11.dtd">
<!-- Creator: CorelDRAW -->
<svg xmlns="http://www.w3.org/2000/svg" xml:space="preserve" width="165.825mm" height="47.7372mm" version="1.1" style="shape-rendering:geometricPrecision; text-rendering:geometricPrecision; image-rendering:optimizeQuality; fill-rule:evenodd; clip-rule:evenodd"
viewBox="0 0 15740.12 4531.22"
 xmlns:xlink="http://www.w3.org/1999/xlink"
 xmlns:xodm="http://www.corel.com/coreldraw/odm/2003">
 <defs>
  <style type="text/css">
   <![CDATA[
    .fil1 {fill:blue}
    .fil0 {fill:black;fill-rule:nonzero}
   ]]>
  </style>
 </defs>
 <g id="Слой_x0020_1">
  <metadata id="CorelCorpID_0Corel-Layer"/>
  <path class="fil0" d="M3637.43 3046.02l545.29 0c0,152.68 52.71,281.73 158.13,387.16 106.33,105.42 235.38,158.13 388.07,158.13l1634.05 0c152.68,0 281.73,-52.71 388.07,-159.04 105.41,-105.42 158.13,-234.47 158.13,-388.06 0,-152.69 -52.72,-280.83 -158.13,-386.26 -106.34,-104.51 -235.39,-157.23 -388.07,-157.23l-1634.05 0c-145.42,0 -285.38,-28.16 -418.06,-85.43 -133.6,-56.34 -249.92,-133.59 -349.89,-230.84 -100.88,-98.16 -179.04,-212.66 -237.21,-346.26 -57.26,-132.68 -86.33,-275.37 -86.33,-428.05 0,-145.42 28.17,-283.55 83.61,-413.51 56.35,-130.88 133.59,-245.38 231.75,-346.26 98.16,-99.97 214.48,-179.95 347.17,-239.93 133.59,-60.89 276.27,-90.88 428.96,-90.88l1634.05 0c145.41,0 283.55,28.16 414.42,85.43 129.96,56.34 244.47,133.59 342.62,230.84 99.06,98.16 178.13,212.66 237.2,346.26 59.08,132.68 91.79,275.37 97.25,428.05l-545.29 0c0,-152.68 -52.72,-281.73 -158.13,-387.16 -106.34,-105.42 -235.39,-158.13 -388.07,-158.13l-1634.05 0c-152.69,0 -281.74,52.71 -388.07,158.13 -105.42,105.43 -158.13,234.48 -158.13,387.16 0,152.68 52.71,281.73 158.13,387.16 106.33,105.42 235.38,158.13 388.07,158.13l1634.05 0c142.69,0 279,28.17 411.69,83.62 131.79,56.34 248.11,133.6 348.09,231.75 100.87,99.06 180.85,214.48 240.82,346.26 60.89,132.69 90.89,274.46 90.89,427.15 0,146.32 -28.17,284.45 -85.43,416.23 -56.34,130.87 -134.51,246.29 -232.65,346.25 -98.16,99.07 -213.58,179.05 -346.27,239.03 -131.78,60.88 -274.46,90.88 -427.14,90.88l-1634.05 0c-149.05,0 -289,-28.17 -420.79,-83.61 -130.87,-56.35 -245.38,-133.59 -343.53,-231.75 -97.25,-98.16 -175.4,-213.58 -234.47,-347.17 -58.17,-132.69 -89.06,-275.37 -92.7,-428.05zm4143.29 -1634.97l0 -1091.48 545.3 0 0 960.62 1176.91 2311.11 369.88 0 1179.65 -2311.11 0 -960.62 545.29 0 0 1091.48 -1392.3 2725.54 -1035.15 0 -1389.58 -2725.54zm4142.39 1634.06l0 -1634.06c0,-145.4 28.17,-283.55 83.61,-414.41 56.35,-129.96 133.59,-244.48 231.75,-342.62 98.16,-99.06 214.48,-178.13 347.17,-239.02 133.59,-59.99 276.27,-91.79 428.96,-95.42l1634.05 0c145.41,0 283.55,28.16 414.42,85.43 129.96,56.34 244.47,133.59 342.62,230.84 99.06,98.16 178.13,212.66 237.2,346.26 59.08,132.68 91.79,275.37 97.25,428.05l-545.29 0c0,-152.68 -52.72,-281.73 -158.13,-387.16 -106.34,-105.42 -235.39,-158.13 -388.07,-158.13l-1634.05 0c-152.69,0 -281.74,52.71 -388.07,158.13 -105.42,106.34 -158.13,235.38 -158.13,388.06l0 1634.06c0,152.69 52.71,281.74 158.13,388.07 106.33,105.42 235.38,158.13 388.07,158.13l1634.05 0c152.68,0 281.73,-52.71 388.07,-158.13 105.41,-105.43 158.13,-234.48 158.13,-387.16l545.29 0c0,145.41 -28.17,283.55 -85.43,415.32 -56.34,130.87 -134.51,246.29 -232.65,345.35 -98.16,99.07 -213.58,179.05 -346.27,239.03 -131.78,60.88 -274.46,90.88 -427.14,90.88l-1634.05 0c-145.42,0 -285.38,-28.17 -418.06,-83.61 -132.69,-56.35 -249.92,-133.59 -349.89,-231.75 -99.97,-98.16 -179.04,-214.48 -237.21,-347.17 -57.26,-133.59 -86.33,-276.27 -86.33,-428.96z"/>
  <path class="fil1" d="M2940.2 4531.22l-689.19 0 0 0 -689.19 0 0 -765.26c0,-180.72 106.53,-289.45 223.25,-408.73 171.39,-175.16 436.95,-423.88 465.93,-445.18l0 0 0 0 0 0c28.98,21.3 294.54,270.03 465.93,445.18 116.72,119.28 223.25,228.01 223.25,408.73l0 765.26z"/>
  <path class="fil1" d="M2940.2 0l-689.19 0 0 0 -689.19 0 0 765.26c0,180.72 106.53,289.45 223.25,408.73 171.39,175.16 436.95,423.88 465.93,445.18l0 0 0 0 0 0c28.98,-21.3 294.54,-270.03 465.93,-445.18 116.72,-119.28 223.25,-228.01 223.25,-408.73l0 -765.26z"/>
  <path class="fil1" d="M-0 1573.99l0 689.19 0 0 0 689.19 765.26 0c180.72,0 289.46,-106.53 408.73,-223.25 175.16,-171.4 423.88,-436.95 445.18,-465.93l0 0 0 0 0 0c-21.3,-28.98 -270.03,-294.55 -445.18,-465.93 -119.27,-116.72 -228.01,-223.25 -408.73,-223.25l-765.26 0z"/>
 </g>
</svg>
