<svg xmlns="http://www.w3.org/2000/svg" viewBox="0 0 750 500"><g id="freepik--background-simple--inject-68"><path d="M631.07,58.11a274.72,274.72,0,0,1-34.19,7.44c-52.46,7.81-173.38,24.54-232,22.14C288.8,84.57,47.69,1.38,29.48,49.21S16.62,447.48,52,454.76s160.74-49.91,234.68-52S537.42,456.84,610.28,460s79.3-8.32,96.45-69.67S742.09,127.2,738.88,80.41C736.14,40.63,658.31,50.44,631.07,58.11Z" style="fill:#0000FF"></path><path d="M631.07,58.11a274.72,274.72,0,0,1-34.19,7.44c-52.46,7.81-173.38,24.54-232,22.14C288.8,84.57,47.69,1.38,29.48,49.21S16.62,447.48,52,454.76s160.74-49.91,234.68-52S537.42,456.84,610.28,460s79.3-8.32,96.45-69.67S742.09,127.2,738.88,80.41C736.14,40.63,658.31,50.44,631.07,58.11Z" style="fill:#fff;opacity:0.7000000000000001"></path></g><g id="freepik--Plants--inject-68"><path d="M28.76,218.8c12.33,2.93,27.91.72,32.69-.08,0,6.62.14,13.59.79,20.84a178.47,178.47,0,0,0,5.27,31.37c0,.12.08.25.11.37C65.8,268.43,60.43,260.59,60,260c-6.77-7.83-24.46-19-35.13-14.45-7.69,3.27-9.94,12.47-6.08,19.49,3.94,7.17,13.38,10.72,21,11.84,8.63,1.25,26.79-4,28.23-4.44A243.26,243.26,0,0,0,79,303c2.5,5.78,5.2,11.53,8,17.25-1.65-2.42-3.15-4.58-3.39-4.86-6.78-7.83-24.47-19-35.14-14.44-7.68,3.26-9.93,12.47-6.07,19.49,3.94,7.17,13.37,10.72,21,11.83s23.34-3,27.45-4.21c1.08,2.19,2.15,4.39,3.24,6.57,5.26,10.47,10.55,20.89,15.43,31.28,1.72,3.66,3.28,7.32,4.86,11-1.48-2.16-2.74-4-3-4.21-6.77-7.83-24.46-19-35.13-14.45-7.68,3.27-9.94,12.47-6.08,19.49,4,7.18,13.38,10.72,21,11.84,7.41,1.08,21.82-2.65,26.7-4,1.5,3.8,3,7.6,4.29,11.35.82,2.58,1.79,5,2.46,7.65s1.44,5.17,2.16,7.71c1.18,4.95,2.44,10.06,3.48,14.92.75,3.37,1.39,6.6,2.06,9.86-1.67-3.67-5.09-10.77-5.45-11.33-5.5-8.76-21.3-22.46-32.53-19.59-8.1,2.06-11.72,10.81-9,18.34,2.81,7.69,11.6,12.62,19,14.88,8.14,2.49,26.16.22,28.41-.08,1.08,5.38,2.08,10.63,2.94,15.6q1.08,6.12,2,11.75H145q-1.11-6.19-2.45-13c-1.08-5.48-2.34-11.3-3.68-17.27a149.73,149.73,0,0,0,15.85-7.46c5.93,6.43,21.13,14,23.1,14.9-2.07,5.09-4.13,10-6.15,14.64-1.23,2.84-2.44,5.55-3.63,8.2h7.67c.76-1.81,1.52-3.64,2.29-5.53,2.12-5.16,4.29-10.71,6.46-16.43,2.18.45,20,4.08,28.34,2.2,7.54-1.7,16.67-6,20-13.43,3.3-7.3.34-16.3-7.57-19-11-3.69-27.77,8.79-33.91,17.12-.36.49-3.7,6.26-5.75,9.94.88-2.34,1.75-4.61,2.62-7,1.75-4.78,3.36-9.6,5.11-14.79q1.14-3.8,2.3-7.67c.82-2.54,1.36-5.34,2.06-8,1.5-6.27,2.71-12.7,3.78-19.21,4.19,1.52,19.15,6.73,26.9,6.18s17.38-3.37,21.85-10.23c4.37-6.71,2.81-16.06-4.61-19.89-10.31-5.31-28.78,4.48-36.11,11.79-.46.45-5.14,6.28-7.64,9.53.61-3.91,1.25-7.82,1.74-11.8,1.43-11.49,2.51-23.17,3.65-34.82.34-3.56.73-7.11,1.11-10.67,1.48.56,19.12,7.13,27.8,6.52,7.71-.54,17.39-3.38,21.85-10.23s2.82-16.07-4.61-19.89c-10.3-5.32-28.77,4.48-36.11,11.78-.55.55-7.26,9-8.87,11.17.83-7.83,1.73-15.63,2.92-23.27a241.66,241.66,0,0,1,6.69-30.62c.69.26,19.07,7.2,28,6.58,7.71-.54,17.39-3.38,21.85-10.24,4.37-6.71,2.81-16.06-4.61-19.88-10.3-5.32-28.77,4.48-36.11,11.78-.48.48-5.6,6.87-8,10l-.59-.3a176.78,176.78,0,0,1,12.16-29.07c2.64-5.16,5.45-9.94,8.29-14.54,3.29,1.65,18.41,9,26.47,9.31,7.73.31,17.65-1.44,22.85-7.77s4.56-15.65-2.4-20.27c-9.66-6.42-29.09,1.29-37.19,7.74-.3.25-2.34,2.26-4.53,4.46,0-.48,0-1,0-1.68.32-.5.65-1,1-1.5,4.85-7.3,9.74-13.69,14.11-19.31,2.52-3.18,4.86-6,7.07-8.62,4.07-.08,20.47-.57,27.65-3.94,7-3.29,15-9.42,16.69-17.42,1.66-7.84-3.17-16-11.47-16.89-11.53-1.24-25.22,14.55-29.44,24-.36.82-4.58,14.25-4.37,14.25h.25c-2.18,2.47-4.49,5.15-7,8.13-4.48,5.51-9.5,11.77-14.49,18.95-.1-11.15-2.07-34.3-16.78-35.7-19.43-1.85-25,20.34-12.95,32.37,8.43,8.43,19.57,9.58,25.49,9.52-3.73,5.55-7.47,11.53-11,18a179.46,179.46,0,0,0-12.92,29.07c0,.11-.06.24-.1.36.06-3.39-.09-12.89-.19-13.62-1.33-10.27-9.93-29.32-21.33-31.43-8.21-1.52-15.17,4.92-15.82,12.91-.67,8.15,5.24,16.31,11,21.47,6.5,5.8,24.55,11.43,26,11.87a242.05,242.05,0,0,0-7.62,31.49c-1.11,6.21-2,12.49-2.88,18.8,0-2.94-.1-5.57-.15-5.93-1.33-10.27-9.94-29.32-21.33-31.43-8.22-1.52-15.17,4.91-15.83,12.9-.67,8.16,5.25,16.32,11,21.47s21.14,10.33,25.2,11.63c-.29,2.42-.62,4.84-.91,7.26-1.39,11.64-2.72,23.25-4.39,34.61-.58,4-1.3,7.92-2,11.84,0-2.61-.09-4.81-.14-5.14-1.33-10.27-9.93-29.32-21.33-31.43-8.22-1.51-15.17,4.92-15.83,12.91-.66,8.15,5.25,16.32,11,21.47,5.58,5,19.65,9.82,24.48,11.39-.85,4-1.69,8-2.69,11.83-.74,2.6-1.27,5.16-2.16,7.73l-2.46,7.62c-1.75,4.79-3.51,9.74-5.33,14.37-1.24,3.22-2.48,6.28-3.72,9.36.63-4,1.69-11.79,1.71-12.45a53.27,53.27,0,0,0-7.14-25.92,16.24,16.24,0,0,0-.19-3c-1.28-7.91-8.71-13.79-16.78-11.64-11.2,3-18.31,22.65-18.84,33,0,.61.37,7.26.69,11.46-.56-2.44-1.08-4.81-1.69-7.31-1.18-5-2.49-9.87-3.89-15.16q-1.16-3.79-2.32-7.66c-.72-2.58-1.81-5.21-2.71-7.84C125.28,389,122.75,383,120.05,377c4.34-1,19.68-5,25.84-9.67s12.64-12.41,12.59-20.59c-.06-8-6.52-14.95-14.82-14-11.53,1.25-21.53,19.61-23.62,29.75-.13.63-.81,8.07-1.11,12.17-1.65-3.61-3.27-7.21-5.06-10.81-5.15-10.37-10.68-20.71-16.16-31-1.68-3.16-3.31-6.34-5-9.51,1.55-.35,19.89-4.61,26.79-9.91,6.14-4.7,12.64-12.4,12.58-20.59-.05-8-6.51-14.94-14.81-14-11.53,1.25-21.53,19.61-23.62,29.75-.16.76-1.13,11.47-1.24,14.21-3.63-7-7.18-14-10.4-21a241.53,241.53,0,0,1-11.32-29.23c.72-.16,19.88-4.51,27-9.94,6.14-4.7,12.64-12.4,12.58-20.59,0-8-6.51-14.94-14.81-14-11.53,1.25-21.53,19.61-23.62,29.75-.14.66-.88,8.83-1.15,12.72l-.65.07a177,177,0,0,1-5.9-31c-.65-5.76-.94-11.3-1.11-16.69,3.65-.45,20.32-2.67,27.22-6.85,6.61-4,13.93-10.94,14.77-19.08.82-8-4.84-15.57-13.19-15.59-11.59,0-23.55,17.13-26.74,27-.17.53-1.33,6.17-2.12,10.29,0-2.43-.13-4.95-.12-7.28,0-8.77.58-16.8,1.12-23.9.35-4,.74-7.68,1.14-11.09,3.36-2.3,16.76-11.77,20.89-18.53,4-6.6,7.31-16.13,4.31-23.74-2.94-7.46-11.47-11.6-18.88-7.76-10.3,5.32-13,26-11.31,36.26.15.88,4,14.42,4.22,14.3l.2-.14c-.45,3.27-.9,6.78-1.31,10.63-.71,7.1-1.44,15.14-1.65,23.94,0,1.62-.06,3.28-.08,5-4.42-6.81-18.36-25.91-33.42-21.86C9.82,199.15,14,215.29,28.76,218.8Z" style="opacity:0.15"></path><path d="M702.16,261.93c-10.18,2.43-23,.6-27-.06,0,5.47-.12,11.23-.66,17.22a148.1,148.1,0,0,1-4.34,25.9c0,.1-.07.2-.1.3,1.51-2.36,5.94-8.84,6.33-9.3,5.6-6.46,20.21-15.67,29-11.92,6.35,2.69,8.21,10.29,5,16.09s-11.05,8.86-17.37,9.78c-7.12,1-22.12-3.31-23.31-3.67a200.43,200.43,0,0,1-9.1,25.17c-2.06,4.78-4.29,9.53-6.58,14.26,1.37-2,2.61-3.79,2.8-4,5.6-6.47,20.21-15.67,29-11.93,6.35,2.7,8.21,10.3,5,16.1s-11,8.85-17.37,9.77-19.27-2.51-22.66-3.47c-.9,1.8-1.78,3.62-2.68,5.42-4.34,8.64-8.72,17.26-12.74,25.83-1.43,3-2.71,6.05-4,9.08,1.21-1.78,2.25-3.27,2.43-3.48,5.6-6.47,20.21-15.67,29-11.93,6.35,2.7,8.21,10.3,5,16.1s-11,8.85-17.37,9.77c-6.12.89-18-2.19-22-3.31-1.24,3.14-2.49,6.28-3.54,9.38-.68,2.13-1.48,4.14-2,6.31s-1.19,4.27-1.78,6.37c-1,4.09-2,8.31-2.88,12.32-.62,2.79-1.15,5.46-1.7,8.14,1.38-3,4.2-8.88,4.5-9.35,4.55-7.24,17.59-18.55,26.87-16.18,6.68,1.7,9.67,8.93,7.4,15.15s-9.58,10.42-15.69,12.29c-6.72,2.05-21.61.18-23.46-.07-.9,4.45-1.72,8.78-2.43,12.88-.6,3.38-1.14,6.61-1.63,9.71h-6q.92-5.13,2-10.75c.89-4.52,1.93-9.33,3-14.26a122.81,122.81,0,0,1-13.09-6.16c-4.9,5.31-17.46,11.52-19.09,12.31,1.71,4.2,3.42,8.27,5.08,12.09,1,2.34,2,4.58,3,6.77H580.8q-.93-2.24-1.89-4.57c-1.75-4.26-3.54-8.84-5.33-13.57-1.81.38-16.54,3.37-23.41,1.82-6.23-1.41-13.77-4.93-16.56-11.09s-.29-13.46,6.25-15.66c9.08-3.05,22.93,7.26,28,14.14.3.41,3,5.17,4.74,8.21-.72-1.94-1.44-3.81-2.16-5.81-1.45-3.95-2.78-7.93-4.22-12.21q-.94-3.13-1.9-6.34c-.68-2.1-1.12-4.41-1.7-6.63-1.24-5.18-2.24-10.49-3.12-15.87-3.46,1.26-15.82,5.56-22.21,5.11s-14.36-2.79-18-8.45-2.33-13.26,3.81-16.43c8.5-4.38,23.76,3.71,29.82,9.74.38.37,4.24,5.19,6.31,7.87-.51-3.23-1-6.45-1.44-9.74-1.18-9.5-2.08-19.14-3-28.76-.29-2.95-.61-5.88-.92-8.82-1.22.47-15.8,5.89-23,5.39-6.37-.45-14.36-2.79-18.05-8.45s-2.32-13.27,3.81-16.43c8.5-4.39,23.76,3.7,29.82,9.73.46.46,6,7.4,7.33,9.23-.69-6.47-1.43-12.91-2.42-19.22a201.15,201.15,0,0,0-5.51-25.29c-.58.22-15.76,5.95-23.1,5.43-6.37-.44-14.36-2.78-18.05-8.45S502.37,288.2,508.5,285c8.51-4.39,23.76,3.7,29.82,9.73.4.39,4.63,5.67,6.58,8.23l.49-.25a146.29,146.29,0,0,0-10-24c-2.18-4.26-4.5-8.21-6.84-12-2.72,1.36-15.21,7.42-21.87,7.69-6.38.25-14.58-1.2-18.87-6.42s-3.76-12.93,2-16.74c8-5.3,24,1.07,30.72,6.39.25.2,1.93,1.86,3.74,3.68,0-.4,0-.86,0-1.39l-.8-1.23c-4-6-8-11.31-11.66-16-2.08-2.63-4-5-5.84-7.12-3.36-.06-16.91-.47-22.83-3.25s-12.39-7.78-13.79-14.39,2.62-13.22,9.48-13.95c9.52-1,20.83,12,24.31,19.83.3.67,3.78,11.77,3.61,11.77h-.2c1.8,2,3.7,4.26,5.74,6.72,3.7,4.55,7.84,9.73,12,15.65.08-9.2,1.71-28.33,13.86-29.49,16-1.52,20.62,16.81,10.69,26.74-7,7-16.16,7.91-21.05,7.86,3.08,4.59,6.17,9.53,9.05,14.88a147,147,0,0,1,10.67,24c0,.09.05.2.09.3-.05-2.81.07-10.65.15-11.25,1.1-8.48,8.2-24.22,17.62-26,6.78-1.25,12.53,4.06,13.07,10.66s-4.34,13.48-9.1,17.73c-5.37,4.8-20.28,9.44-21.47,9.81a200.32,200.32,0,0,1,6.3,26c.92,5.12,1.68,10.31,2.38,15.52,0-2.43.08-4.6.12-4.9,1.1-8.48,8.21-24.21,17.62-25.95,6.78-1.26,12.53,4.06,13.07,10.65.55,6.74-4.33,13.48-9.1,17.73s-17.46,8.54-20.82,9.61c.25,2,.52,4,.76,6,1.15,9.61,2.25,19.2,3.62,28.58.48,3.3,1.08,6.54,1.66,9.78,0-2.16.08-4,.12-4.25,1.1-8.48,8.2-24.21,17.62-25.95,6.78-1.26,12.53,4.06,13.07,10.65s-4.34,13.48-9.1,17.74-16.23,8.11-20.22,9.4c.7,3.3,1.4,6.61,2.22,9.78.62,2.15,1.06,4.26,1.79,6.38l2,6.3c1.44,3.95,2.9,8,4.4,11.86,1,2.66,2.05,5.19,3.07,7.73-.52-3.29-1.39-9.74-1.41-10.28a44,44,0,0,1,5.9-21.4,14.05,14.05,0,0,1,.16-2.51c1-6.53,7.19-11.39,13.85-9.61,9.26,2.46,15.12,18.7,15.56,27.24,0,.5-.3,6-.57,9.46.47-2,.9-4,1.4-6,1-4.1,2.06-8.15,3.22-12.52l1.91-6.33c.59-2.13,1.49-4.3,2.24-6.47,1.83-5,3.92-10,6.15-15-3.58-.85-16.26-4.08-21.35-8S595,374.33,595,367.58s5.38-12.35,12.24-11.6c9.52,1,17.78,16.19,19.51,24.57.1.52.67,6.66.91,10.05,1.36-3,2.71-6,4.18-8.93,4.25-8.56,8.83-17.1,13.35-25.64,1.39-2.62,2.74-5.24,4.1-7.86-1.28-.29-16.42-3.81-22.12-8.18-5.07-3.89-10.44-10.25-10.39-17s5.38-12.34,12.23-11.6c9.52,1,17.78,16.2,19.51,24.57.13.63.93,9.48,1,11.74,3-5.77,5.93-11.55,8.59-17.36a197.9,197.9,0,0,0,9.35-24.14c-.6-.13-16.42-3.73-22.26-8.21-5.07-3.88-10.44-10.24-10.39-17s5.38-12.35,12.24-11.6c9.52,1,17.77,16.19,19.5,24.57.12.55.73,7.29.95,10.5l.54.06A145.17,145.17,0,0,0,673,278.94c.54-4.75.78-9.33.92-13.78-3-.37-16.78-2.2-22.48-5.66-5.46-3.3-11.5-9-12.2-15.76s4-12.86,10.89-12.87c9.57,0,19.45,14.15,22.09,22.28.14.44,1.1,5.1,1.75,8.5,0-2,.1-4.09.09-6,0-7.24-.47-13.87-.92-19.73-.28-3.34-.61-6.35-.94-9.16-2.77-1.9-13.84-9.72-17.25-15.31s-6-13.32-3.56-19.6,9.47-9.58,15.6-6.41c8.5,4.39,10.74,21.51,9.33,30-.12.73-3.33,11.91-3.48,11.81l-.17-.12c.38,2.7.75,5.6,1.09,8.78.58,5.87,1.18,12.5,1.35,19.77,0,1.34.06,2.71.08,4.09,3.64-5.63,15.16-21.4,27.59-18C717.81,245.71,714.34,259,702.16,261.93Z" style="opacity:0.15"></path></g><g id="freepik--Calendar--inject-68"><g style="opacity:0.30000000000000004"><path d="M679.71,52.4v86.77H574.56V52.4H609.8v3.51a3.85,3.85,0,0,0,7.69,0V52.4h19.29v3.51a3.84,3.84,0,1,0,7.67,0V52.4Z" style="fill:none;stroke:#000;stroke-linecap:round;stroke-linejoin:round"></path><rect x="580.91" y="76.82" width="13.21" height="13.21" style="fill:none;stroke:#000;stroke-linecap:round;stroke-linejoin:round"></rect><rect x="600.72" y="76.82" width="13.21" height="13.21" style="fill:none;stroke:#000;stroke-linecap:round;stroke-linejoin:round"></rect><rect x="620.53" y="76.82" width="13.21" height="13.21" style="fill:none;stroke:#000;stroke-linecap:round;stroke-linejoin:round"></rect><rect x="640.34" y="76.82" width="13.21" height="13.21" style="fill:none;stroke:#000;stroke-linecap:round;stroke-linejoin:round"></rect><rect x="660.15" y="76.82" width="13.21" height="13.21" style="fill:none;stroke:#000;stroke-linecap:round;stroke-linejoin:round"></rect><rect x="580.91" y="97.18" width="13.21" height="13.21" style="fill:none;stroke:#000;stroke-linecap:round;stroke-linejoin:round"></rect><rect x="600.72" y="97.18" width="13.21" height="13.21" style="fill:none;stroke:#000;stroke-linecap:round;stroke-linejoin:round"></rect><rect x="620.53" y="97.18" width="13.21" height="13.21" style="fill:none;stroke:#000;stroke-linecap:round;stroke-linejoin:round"></rect><rect x="640.34" y="97.18" width="13.21" height="13.21" style="fill:none;stroke:#000;stroke-linecap:round;stroke-linejoin:round"></rect><rect x="660.15" y="97.18" width="13.21" height="13.21" style="fill:none;stroke:#000;stroke-linecap:round;stroke-linejoin:round"></rect><rect x="580.91" y="117.54" width="13.21" height="13.21" style="fill:none;stroke:#000;stroke-linecap:round;stroke-linejoin:round"></rect><rect x="600.72" y="117.54" width="13.21" height="13.21" style="fill:none;stroke:#000;stroke-linecap:round;stroke-linejoin:round"></rect><rect x="620.53" y="117.54" width="13.21" height="13.21" style="fill:none;stroke:#000;stroke-linecap:round;stroke-linejoin:round"></rect><rect x="640.34" y="117.54" width="13.21" height="13.21" style="fill:none;stroke:#000;stroke-linecap:round;stroke-linejoin:round"></rect><rect x="660.15" y="117.54" width="13.21" height="13.21" style="fill:none;stroke:#000;stroke-linecap:round;stroke-linejoin:round"></rect><path d="M617.49,42.7V55.91a3.85,3.85,0,0,1-7.69,0V42.7a3.85,3.85,0,0,1,7.69,0Z" style="stroke:#000;stroke-linecap:round;stroke-linejoin:round"></path><path d="M644.45,42.7V55.91a3.84,3.84,0,1,1-7.67,0V42.7a3.84,3.84,0,0,1,7.67,0Z" style="stroke:#000;stroke-linecap:round;stroke-linejoin:round"></path></g></g><g id="freepik--Chart--inject-68"><g style="opacity:0.30000000000000004"><rect x="387.92" y="424.9" width="14.57" height="33.74" style="fill:none;stroke:#000;stroke-linecap:round;stroke-linejoin:round"></rect><rect x="407.42" y="407.65" width="14.57" height="50.99" style="fill:none;stroke:#000;stroke-linecap:round;stroke-linejoin:round"></rect><rect x="426.91" y="385.91" width="14.57" height="72.73" style="fill:none;stroke:#000;stroke-linecap:round;stroke-linejoin:round"></rect><rect x="446.41" y="370.91" width="14.57" height="87.73" style="fill:none;stroke:#000;stroke-linecap:round;stroke-linejoin:round"></rect></g></g><g id="freepik--Target--inject-68"><g style="opacity:0.30000000000000004"><circle cx="183.01" cy="77.45" r="53.11" transform="translate(36.74 211.98) rotate(-65.54)" style="fill:none;stroke:#000;stroke-miterlimit:10"></circle><circle cx="183.01" cy="77.45" r="42.53" transform="translate(-1.16 152.1) rotate(-45)" style="fill:none;stroke:#000;stroke-miterlimit:10"></circle><circle cx="183.01" cy="77.45" r="27.23" transform="translate(-1.16 152.1) rotate(-45)" style="fill:none;stroke:#000;stroke-miterlimit:10"></circle><circle cx="183.01" cy="77.45" r="15.39" transform="translate(-1.16 152.1) rotate(-45)" style="fill:none;stroke:#000;stroke-miterlimit:10"></circle><path d="M189.51,77.45A6.5,6.5,0,1,0,183,84,6.5,6.5,0,0,0,189.51,77.45Z" style="fill:none;stroke:#000;stroke-miterlimit:10"></path></g><path d="M181.73,78.74H110.3V76.17h71.43A1.28,1.28,0,0,1,183,77.45h0A1.28,1.28,0,0,1,181.73,78.74Z" style="fill:#b2b2b2"></path><polygon points="103.95 68.29 104.35 68.75 111.81 76.16 89.48 76.16 81.49 68.29 103.95 68.29" style="fill:#b2b2b2"></polygon><path d="M81.49,86.31l8-7.59h22.34a47.79,47.79,0,0,0-7.93,7.59Z" style="fill:#b2b2b2"></path></g><g id="freepik--Floor--inject-68"><line x1="706.17" y1="466.58" x2="734.38" y2="466.58" style="fill:none;stroke:#263238;stroke-linecap:round;stroke-linejoin:round"></line><line x1="239.82" y1="466.58" x2="694.71" y2="466.58" style="fill:none;stroke:#263238;stroke-linecap:round;stroke-linejoin:round"></line><line x1="22.08" y1="466.58" x2="232.77" y2="466.58" style="fill:none;stroke:#263238;stroke-linecap:round;stroke-linejoin:round"></line></g><g id="freepik--character-3--inject-68"><path d="M496.09,402.17l2.38,18s2.91,22.24,3.58,27.4.39,18.79.39,18.79H492.25l-.13-19.19.26-32.82Z" style="fill:gray;stroke:#263238;stroke-linecap:round;stroke-linejoin:round"></path><path d="M502.49,460.82c0,3.16-.05,5.54-.05,5.54H492.25l-.05-8.06Z" style="fill:#fff;stroke:#263238;stroke-linecap:round;stroke-linejoin:round"></path><path d="M502.47,464.25c0,.87,0,1.53,0,1.86v.14h0v.1H492.25v-2.11Z" style="fill:#fff;stroke:#263238;stroke-linecap:round;stroke-linejoin:round"></path><path d="M481,456.57s-3.84,3.84-5.69,4.63-4.76,1.06-5.16,2a11.24,11.24,0,0,0-.13,3.57H495.3a10.61,10.61,0,0,0,.39-3.84,9,9,0,0,0-.66-2.38S482.59,456.44,481,456.57Z" style="fill:#fff;stroke:#263238;stroke-linecap:round;stroke-linejoin:round"></path><path d="M495.3,466.76H470a18.94,18.94,0,0,1-.08-2.12H495.7A13,13,0,0,1,495.3,466.76Z" style="fill:#fff;stroke:#263238;stroke-linecap:round;stroke-linejoin:round"></path><path d="M502.58,376.63s-.14,8.07-1.33,10.32-3.57,6.09-3.57,6.09-3.05,25-2.52,27.4,2.25,8.6,2.12,13-2.38,22.76-2.38,22.76.66,1.19.53,1.59-.4,2.78-.4,2.78-4.1-.66-7-1.46a71.42,71.42,0,0,1-7-2.51,4.5,4.5,0,0,1-.13-2.52c.4-.92,1.46-3.57,1.46-3.57s-.4-15.62-.4-18.26-2.12-14.17-2.12-16.55-2.51-24.48-2.12-27,.67-6.35.67-6.35l-.67-6Z" style="fill:#a1a1a1;stroke:#263238;stroke-linecap:round;stroke-linejoin:round"></path><path d="M488.75,396.38c.1,7.28.25,20.51.06,22.6" style="fill:none;stroke:#263238;stroke-linecap:round;stroke-linejoin:round"></path><path d="M488.68,391.58s0,.9,0,2.36" style="fill:none;stroke:#263238;stroke-linecap:round;stroke-linejoin:round"></path><path d="M489.08,421.89s.79,5.3,1.05,11.78-.92,20.25-.92,20.25a8.32,8.32,0,0,1,.53,1.85,10.48,10.48,0,0,1-.8,2.25" style="fill:none;stroke:#263238;stroke-linecap:round;stroke-linejoin:round"></path><path d="M499,332.27s5.87,9.21,6.78,12.85-2.43,22-2.43,22,1.32,8.4.91,9.21a4.65,4.65,0,0,1-1.21,1.42h-25.5a10.81,10.81,0,0,1-1.22-2.93,8.73,8.73,0,0,1,.2-3.85c.51-1.72,1.72-21.46,2.94-25.1S486,335.51,486,335.51Z" style="fill:#0000FF;stroke:#263238;stroke-linecap:round;stroke-linejoin:round"></path><path d="M481.4,318.84c.17-1.24,2.14-2.29,2.8-3.24s.27-1.84.8-2.92c1.58-3.17,2.77-6.13,6.47-7,4.6-1,11.8,1.32,13.94,5.35a12.9,12.9,0,0,1,.52,9.94,9.87,9.87,0,0,1-2.68,4.15c-.37.33-4.46,2.24-4.42,2l-.41,3.24L487,333.28l-.51-5.06a18.92,18.92,0,0,1-3.34-.3c-1.31-.31-1.72-.81-1.42-1.93s1.22-5.06,1.22-5.06a5.69,5.69,0,0,1-1.4-1.32A1.22,1.22,0,0,1,481.4,318.84Z" style="fill:#fff;stroke:#263238;stroke-linecap:round;stroke-linejoin:round"></path><path d="M485.92,315.26c-.2.62-.09,1.21.24,1.32s.78-.3,1-.92.1-1.21-.24-1.32S486.13,314.64,485.92,315.26Z" style="fill:#263238"></path><path d="M488.65,313.69a2.12,2.12,0,0,0-2.37-1.58" style="fill:none;stroke:#263238;stroke-linecap:round;stroke-linejoin:round"></path><path d="M483.43,322.84a2.78,2.78,0,0,0,2.46-.88" style="fill:none;stroke:#263238;stroke-linecap:round;stroke-linejoin:round"></path><path d="M498.6,323.3c1-1.49.5-4.31-1.16-5s-3.65,1.83-4.14,1.66,1.16-3,1.16-3a6.33,6.33,0,0,1-2.49-2.66c-.5-1.49,3-3,4-3.15s-4.48-5.48-4.48-5.48c4.6-1,11.8,1.32,13.94,5.35a12.9,12.9,0,0,1,.52,9.94,9.87,9.87,0,0,1-2.68,4.15,25.86,25.86,0,0,1-4.22,2h-.2l-2.88-2A4.55,4.55,0,0,0,498.6,323.3Z" style="fill:#263238;stroke:#263238;stroke-linecap:round;stroke-linejoin:round"></path><polygon points="485.14 336.95 481.21 342.41 479.9 371.23 477.69 376.36 474.88 367.08 480.71 341.38 484.71 334.62 485.14 336.95" style="fill:#263238;stroke:#263238;stroke-linecap:round;stroke-linejoin:round"></polygon><polygon points="498.83 329.13 484.76 333.79 485.27 339.45 499.94 332.67 498.83 329.13" style="fill:#0000FF;stroke:#263238;stroke-linecap:round;stroke-linejoin:round"></polygon><polygon points="486.48 328.22 489.21 328.02 486.99 331.36 486.48 328.22" style="fill:#263238;stroke:#263238;stroke-linecap:round;stroke-linejoin:round"></polygon><polygon points="448.53 339.96 462.19 329.94 468.77 356.36 466.75 358.58 448.53 339.96" style="fill:#dedede;stroke:#263238;stroke-linecap:round;stroke-linejoin:round"></polygon><path d="M454.5,326.2,467.45,357l12.45,14.27-7.59,6.28L461,360.1s-14.47-18.22-14.88-19.43S454.5,326.2,454.5,326.2Z" style="fill:#fff;stroke:#263238;stroke-linecap:round;stroke-linejoin:round"></path><path d="M478.37,358.3l-7.47-2.82s-2.16-3.15-2.49-3.81-4-2-4.48-2.49-2.15-2.32-2.32-1.49-.5,1.65.33,2.15a16.18,16.18,0,0,1,2.49,2.66s-4-.34-4.31.66.66,3,.66,3a4,4,0,0,1,1.83.66c.49.5,1.49,2.65,2.65,3.15s5.31.67,5.31.67l4.64,3.64Z" style="fill:#fff;stroke:#263238;stroke-linecap:round;stroke-linejoin:round"></path><path d="M473.52,356.26l-2.19-.82s-2.18,5.33-2,5.39l2.25.69Z" style="fill:#0000FF;stroke:#263238;stroke-linecap:round;stroke-linejoin:round"></path><path d="M502.32,344.78a7.8,7.8,0,0,1,.35,2.37c-.1,1.92-5.46,24.59-5.87,26s-3.74,2.22-4.75,1.92-20.62-12.29-20.82-12.8,1.31-6.16,2.32-6.47,13.64,5,13.64,5,.57-14.23,1.44-16.71" style="fill:#0000FF;stroke:#263238;stroke-linecap:round;stroke-linejoin:round"></path><line x1="487.8" y1="361.01" x2="492.35" y2="363.44" style="fill:none;stroke:#263238;stroke-linecap:round;stroke-linejoin:round"></line><line x1="492.45" y1="361.92" x2="489.42" y2="361.21" style="fill:none;stroke:#263238;stroke-linecap:round;stroke-linejoin:round"></line></g><g id="freepik--character-2--inject-68"><polygon points="289.49 143.3 293.71 162.16 306.84 158.74 308 162.56 288.85 174.24 284.7 164.83 289.49 143.3" style="fill:#fff;stroke:#263238;stroke-linecap:round;stroke-linejoin:round"></polygon><polygon points="270.35 136.97 257.33 143.11 260.62 173.14 282.18 173.51 288.2 159.68 289.49 143.3 279.76 138.48 270.35 136.97" style="fill:#fff;stroke:#263238;stroke-linecap:round;stroke-linejoin:round"></polygon><path d="M266.74,139l2.67,11.37,13.82.89-.89-10.92-2.58-1.88S268.74,135.68,266.74,139Z" style="fill:#fff;stroke:#263238;stroke-linecap:round;stroke-linejoin:round"></path><path d="M281.79,114.82c2.89.39,5.57,1.82,6.68,4.24,1.81,3.92.3,7.85.91,8.75a24.88,24.88,0,0,1,1.51,3.33l-2.42,1.51s-2.55,4.74-3.45,5.34-4.4-1.12-4.4-1.12l-2.42,4.53-7.85-6.64,3.33-6.34s-3-5.74-1.51-9.36C273.58,115.67,277.88,114.3,281.79,114.82Z" style="fill:#fff;stroke:#263238;stroke-linecap:round;stroke-linejoin:round"></path><path d="M288,127.7c0,.67-.26,1.22-.58,1.22s-.58-.55-.58-1.22.26-1.22.58-1.22S288,127,288,127.7Z" style="fill:#263238"></path><path d="M286.6,133.79a2.47,2.47,0,0,1-1.54-1" style="fill:#fff;stroke:#263238;stroke-linecap:round;stroke-linejoin:round"></path><path d="M286.47,124.94s1.41-.77,2,.26" style="fill:#fff;stroke:#263238;stroke-linecap:round;stroke-linejoin:round"></path><path d="M260.61,173.14s-6.08,6.36-7.19,18.54-2.77,35.15-2.77,35.15l-5.81,36.54,7.19.27,11.63-35.7,7.75-28,9.13,28.23,6,35.77,6.92-.83-.5-43.79-1.11-7.12a121.33,121.33,0,0,0-7.68-27.48l-.34-.83-1.7-10.42Z" style="fill:#263238;stroke:#263238;stroke-linecap:round;stroke-linejoin:round"></path><path d="M289.22,119.24s.73,3-3.69,6l-4.43,3s-.56,20.76-1.11,21.87-13.84-10.8-13-13.29a57.09,57.09,0,0,0,1.9-11c0-1.93.32-7.3,3.64-10.62s17.71-2.49,18.54.28A2.91,2.91,0,0,1,289.22,119.24Z" style="fill:#263238;stroke:#263238;stroke-linecap:round;stroke-linejoin:round"></path><path d="M257.33,143.11l-15,25-3.76,22.7,4,.31,7.49-21.63,8.74-10.69S259.31,147.14,257.33,143.11Z" style="fill:#fff;stroke:#263238;stroke-linecap:round;stroke-linejoin:round"></path><path d="M246.41,196.18s-1.65-2.2-1.83-2.47-2-2.55-2-2.55-3.51-1.37-4-.31-1.31,8.7-1.4,9.34.64,1.1.64,1.1l.64-3.11s.27,3.2.27,4.11.91.73.91.73l.28-4.75s.91,3.84,1.09,4.75a.57.57,0,0,0,1.1.18c0-.27.18-5.38.18-5.38s.82,3.1,1,3.83,1-.29,1-.29l-.16-5s.43.22,1.62.68S246.41,196.18,246.41,196.18Z" style="fill:#fff;stroke:#263238;stroke-linecap:round;stroke-linejoin:round"></path><line x1="244.15" y1="196.41" x2="243.21" y2="193.71" style="fill:none;stroke:#263238;stroke-linecap:round;stroke-linejoin:round"></line><path d="M306.84,158.74l1.56-4.53,2.7-2.29s.13-2.16.94-2.29,1.08.27.94,1.48a6.43,6.43,0,0,1-.94,2.43s1.75-1.22,2.15-.54.27,6.73-.13,7.54-6.06,2-6.06,2Z" style="fill:#fff;stroke:#263238;stroke-linecap:round;stroke-linejoin:round"></path><path d="M312,153.54,310.56,155s-.54,5.52,0,5.52h3.5" style="fill:#fff;stroke:#263238;stroke-linecap:round;stroke-linejoin:round"></path><path d="M244.84,263.37l-2,5.62a13.09,13.09,0,0,0-1.56,4c-.22,1.78,6.69.89,7.8.89A4.1,4.1,0,0,0,252,273c.67-.67,0-9.36,0-9.36Z" style="fill:#fff;stroke:#263238;stroke-linecap:round;stroke-linejoin:round"></path><path d="M293.5,263.29l2.44,4.93s5.57,2.23,5.8,3.57,0,2-1.34,2.22-15.61,0-15.61,0v-4.45c0-1.12,1.79-5.44,1.79-5.44Z" style="fill:#fff;stroke:#263238;stroke-linecap:round;stroke-linejoin:round"></path><polygon points="321.82 401.57 318.81 404.58 198.75 310.38 201.75 307.38 321.82 401.57" style="fill:#fff;stroke:#263238;stroke-linecap:round;stroke-linejoin:round"></polygon><polygon points="198.75 401.57 201.75 404.58 321.82 310.38 318.81 307.38 198.75 401.57" style="fill:#fff;stroke:#263238;stroke-linecap:round;stroke-linejoin:round"></polygon><rect x="320.11" y="279.62" width="4.25" height="187.12" style="fill:#fff;stroke:#263238;stroke-linecap:round;stroke-linejoin:round"></rect><rect x="199.21" y="279.62" width="4.25" height="187.12" style="fill:#fff;stroke:#263238;stroke-linecap:round;stroke-linejoin:round"></rect><rect x="258.47" y="248.73" width="4.25" height="118.89" transform="translate(-47.57 568.77) rotate(-90)" style="fill:#fff;stroke:#263238;stroke-linecap:round;stroke-linejoin:round"></rect><rect x="258.47" y="344.72" width="4.25" height="118.89" transform="translate(-143.57 664.77) rotate(-90)" style="fill:#fff;stroke:#263238;stroke-linecap:round;stroke-linejoin:round"></rect><polygon points="303.16 401.57 300.15 404.58 180.09 310.38 183.1 307.38 303.16 401.57" style="fill:#fff;stroke:#263238;stroke-linecap:round;stroke-linejoin:round"></polygon><polygon points="180.09 401.57 183.1 404.58 303.16 310.38 300.15 307.38 180.09 401.57" style="fill:#fff;stroke:#263238;stroke-linecap:round;stroke-linejoin:round"></polygon><rect x="239.82" y="248.73" width="4.25" height="118.89" transform="translate(-66.23 550.12) rotate(-90)" style="fill:#fff;stroke:#263238;stroke-linecap:round;stroke-linejoin:round"></rect><rect x="239.82" y="344.72" width="4.25" height="118.89" transform="translate(-162.22 646.11) rotate(-90)" style="fill:#fff;stroke:#263238;stroke-linecap:round;stroke-linejoin:round"></rect><rect x="178.55" y="279.62" width="4.25" height="187.12" style="fill:#fff;stroke:#263238;stroke-linecap:round;stroke-linejoin:round"></rect><rect x="301.28" y="279.62" width="4.25" height="187.12" style="fill:#fff;stroke:#263238;stroke-linecap:round;stroke-linejoin:round"></rect><rect x="171.24" y="274.31" width="160.32" height="8.12" style="fill:#263238;stroke:#263238;stroke-linecap:round;stroke-linejoin:round"></rect></g><g id="freepik--Gears--inject-68"><line x1="310.21" y1="220.68" x2="310.21" y2="8.88" style="fill:none;stroke:#263238;stroke-linecap:round;stroke-linejoin:round"></line><line x1="435.03" y1="135.59" x2="435.03" y2="8.88" style="fill:none;stroke:#263238;stroke-linecap:round;stroke-linejoin:round"></line><path d="M395.93,322.45c0-1,.06-2,0-3a78.94,78.94,0,0,0-7.71-30.55L414,266.3l-23.64-26.92h-6.18l-.54,5.89h0L365.71,261a78.85,78.85,0,0,0-31.88-15l-1.59-33.36h-6.18L298,246.39a78.66,78.66,0,0,0-31.78,16.14L239.31,243.1h-6.18l.87,4,1.71,1-17.38,24,26.25,19a78.57,78.57,0,0,0-6.8,34.56l-32.59,9.09,8.59,30.82-5.15,3.68h6.18l32.16-9a79.4,79.4,0,0,0,22.22,26.16l-13.62,32.12,26.34,11.18.46,2.81h6.18L302,401a77.3,77.3,0,0,0,33.61-.79l13.61,25.13-2.85,6.16h6.18L384,414.39,367.54,384a79.5,79.5,0,0,0,20.73-26.5l28.21,5,.37,1.17H423l6.3-35.27Zm-77.4,35.92A35.15,35.15,0,1,1,352,321.59,35.15,35.15,0,0,1,318.53,358.37Z" style="fill:#263238;stroke:#263238;stroke-linecap:round;stroke-linejoin:round"></path><path d="M382.09,357.47l34.76,6.21,6.3-35.27-33.39-6c0-1,.05-2,0-3a78.94,78.94,0,0,0-7.71-30.55l25.77-22.64-23.64-26.92L359.53,261a78.85,78.85,0,0,0-31.88-15l-1.59-33.36-35.78,1.7,1.52,32A78.66,78.66,0,0,0,260,262.53L233.13,243.1l-21,29,26.25,19a78.57,78.57,0,0,0-6.8,34.56L199,334.76l9.62,34.5,32.16-9A79.4,79.4,0,0,0,263,386.46l-13.62,32.12,33,14L295.78,401a77.3,77.3,0,0,0,33.61-.79l16.94,31.29,31.51-17.06L361.36,384A79.38,79.38,0,0,0,382.09,357.47ZM275.57,324.93a35.15,35.15,0,1,1,36.78,33.44A35.15,35.15,0,0,1,275.57,324.93Z" style="fill:#0000FF;stroke:#263238;stroke-linecap:round;stroke-linejoin:round"></path><path d="M498.53,206.55A66,66,0,0,0,505.2,181l28.11-6.22L526.8,145.4h-6.18l.28,1.31-21,4.65a66.06,66.06,0,0,0-17.36-23.94l12.32-25.17L467.89,89h-6.18l5,2.44-10.64,21.74a65.94,65.94,0,0,0-29.89-1L414.26,87.08h-6.18l1.21,2.35L387.09,100l11.64,24.55a65.93,65.93,0,0,0-19,22.65l-27.64-6.49h-6.18l0,2.24,5.49.85-6.15,26.17,27.26,6.41a66.7,66.7,0,0,0,5.77,28.22l-23,18.1,14.84,18.86-2.43,4.76h6.17l22.65-17.83a64.9,64.9,0,0,0,25,13l-.19,29.85,30.06.2.18-29a66.5,66.5,0,0,0,25.95-11.1l19.28,15.57-2.42,3h6.18l18.89-23.37-22.13-17.89C497.72,208,498.16,207.3,498.53,206.55Zm-33.18-16.23a29.49,29.49,0,1,1-13.52-39.45A29.49,29.49,0,0,1,465.35,190.32Z" style="fill:#263238;stroke:#263238;stroke-linecap:round;stroke-linejoin:round"></path><path d="M471.35,231.37l23,18.61,18.89-23.37-22.13-17.89c.39-.73.83-1.42,1.2-2.17A66,66,0,0,0,499,181l28.11-6.22-6.51-29.35-26.87,6a66.06,66.06,0,0,0-17.36-23.94l12.32-25.17L461.71,89l-11.83,24.18a65.94,65.94,0,0,0-29.89-1L408.08,87.08,380.91,100l11.64,24.55a65.93,65.93,0,0,0-19,22.65l-27.64-6.49-6.87,29.26,27.26,6.41a66.7,66.7,0,0,0,5.77,28.22l-23,18.1,18.59,23.62,22.64-17.83a64.9,64.9,0,0,0,25,13l-.19,29.85,30.06.2.18-29A66.5,66.5,0,0,0,471.35,231.37Zm-65.15-67a29.49,29.49,0,1,1,13.52,39.45A29.49,29.49,0,0,1,406.2,164.39Z" style="fill:#0000FF;stroke:#263238;stroke-linecap:round;stroke-linejoin:round"></path></g><g id="freepik--character-4--inject-68"><path d="M560.57,263.72s-8,5.77-8.51,5.9-4.15.81-4.53,1.59a3.46,3.46,0,0,0-.37,2.73c.4.77,25.55-.2,25.55-.2a6.24,6.24,0,0,0,.24-3,42.7,42.7,0,0,1-.3-4.92Z" style="fill:#fff;stroke:#263238;stroke-linecap:round;stroke-linejoin:round"></path><path d="M573,272.31l-25.93.2a2.22,2.22,0,0,0,.09,1.43c.4.77,25.55-.2,25.55-.2A5.62,5.62,0,0,0,573,272.31Z" style="fill:#fff;stroke:#263238;stroke-linecap:round;stroke-linejoin:round"></path><path d="M623.59,262.19l-1.52,4.42-5.8,5.11s-.38,1.42.27,1.68,11.8-.09,11.8-.09a13.26,13.26,0,0,0,2.46-1.58c.64-.65,6.15-8.73,6-9.64s-3.53-3.74-3.53-3.74Z" style="fill:#fff;stroke:#263238;stroke-linecap:round;stroke-linejoin:round"></path><path d="M630.8,271.73c.64-.65,6.15-8.73,6-9.64a4.23,4.23,0,0,0-1.08-1.48c-2,3.36-5.78,9.74-6.64,10.23s-9.56.86-12.85,1c-.07.32-.25,1.36.29,1.58s11.8-.09,11.8-.09A13.26,13.26,0,0,0,630.8,271.73Z" style="fill:#fff;stroke:#263238;stroke-linecap:round;stroke-linejoin:round"></path><path d="M581.46,198.45a35.16,35.16,0,0,0-1,3.77c0,.52.14,2.2.14,2.2s-16.7,20.11-17.72,22.06-1.41,35.42-1.41,35.42-1.56.4-1.55.92a9.55,9.55,0,0,1-.25,1.55,36.69,36.69,0,0,0,5.21,2.56c2,.63,7.14,1.5,7.14,1.5a6.68,6.68,0,0,0,.63-2.6c0-1.3-.42-3.63-.42-4s5.09-29.09,5.09-29.09l16.33-18.28s7.16,20.17,8.59,21.33,19.39,24.49,19.39,24.49-1.29.79-.64,1.17a12.15,12.15,0,0,1,2,2.58s5.19-.82,7.25-2.13a9.24,9.24,0,0,0,3.09-3.53,40,40,0,0,0-2.24-3.48c-.65-.77-1.57-2.06-1.57-2.06l-15.12-26.08s-3.72-29.28-4.78-32-4.73-7-4.73-7Z" style="fill:#a1a1a1;stroke:#263238;stroke-linecap:round;stroke-linejoin:round"></path><polygon points="580.71 201.05 606.55 189.57 604.85 187.77 581.33 197.42 580.71 201.05" style="fill:#263238;stroke:#263238;stroke-linecap:round;stroke-linejoin:round"></polygon><path d="M586.4,199.71l.67,2.07s-1.29.79-1,1.43a11.72,11.72,0,0,0,2,2.19" style="fill:none;stroke:#263238;stroke-linecap:round;stroke-linejoin:round"></path><path d="M588.47,198.79l1,2.32s-1.28,1-.63,1.95a17.2,17.2,0,0,0,1.57,1.81" style="fill:none;stroke:#263238;stroke-linecap:round;stroke-linejoin:round"></path><line x1="589.06" y1="208.74" x2="588.15" y2="207.61" style="fill:none;stroke:#263238;stroke-linecap:round;stroke-linejoin:round"></line><line x1="593.65" y1="214.44" x2="590.78" y2="210.88" style="fill:none;stroke:#263238;stroke-linecap:round;stroke-linejoin:round"></line><line x1="622.74" y1="246.37" x2="624.92" y2="250.12" style="fill:none;stroke:#263238;stroke-linecap:round;stroke-linejoin:round"></line><path d="M606.41,203.83l5.1,22.4-.38,1.82s1.56.25,1.56.64v.39l8.59,14.79" style="fill:none;stroke:#263238;stroke-linecap:round;stroke-linejoin:round"></path><line x1="569.51" y1="254.73" x2="568.72" y2="260.93" style="fill:none;stroke:#263238;stroke-linecap:round;stroke-linejoin:round"></line><path d="M589.23,213.57l-16.06,18.67s-2.6-.24-2.21.4a15.35,15.35,0,0,0,1.18,1.55l-2.36,18.44" style="fill:none;stroke:#263238;stroke-linecap:round;stroke-linejoin:round"></path><path d="M563.68,166.37s1.39,12.77,2.5,14.14S578,192,578,192s2.16,6.33,2.25,6.79-.55,1.25,1,1,23.1-10.25,23.83-11a4.35,4.35,0,0,0,1.08-2.68,4.15,4.15,0,0,0-1-2,17.71,17.71,0,0,0-2.13-1.64s-10.15-16.93-12.38-19-10.36-9.11-14.05-9.81a44,44,0,0,0-8.55-.49Z" style="fill:#fff;stroke:#263238;stroke-linecap:round;stroke-linejoin:round"></path><path d="M533.94,151.82a35,35,0,0,0-2.51-3.36c-.53-.42-6.51-3.78-6.51-3.78s-2,.42-.53,1.47a30,30,0,0,1,4,4.3,17.1,17.1,0,0,0-2.83-.63c-.74,0-1,1.68-.21,1.89a17.83,17.83,0,0,1,1.89.63s1.68,2.73,2.52,3.15a8.07,8.07,0,0,0,2.41.52L566,170l1.78-9.66Z" style="fill:#fff;stroke:#263238;stroke-linecap:round;stroke-linejoin:round"></path><path d="M559,148.48a27.79,27.79,0,0,0-4.79-4.82c-2.94-2.3-12.69,1-14.1,9.33,0,0-1.25,4,.75,6.14a27.6,27.6,0,0,0,5.11,4.07s3.33,3.84,3.7,3.65a13.47,13.47,0,0,0,1.64-2.13s5.35,2.9,5.9,2.44a30.05,30.05,0,0,0,2.36-3.79l3,1.91,3.86-11.8-4.7-1Z" style="fill:#fff;stroke:#263238;stroke-linecap:round;stroke-linejoin:round"></path><polygon points="565.6 152.57 561.38 166.57 565.27 169.39 569.09 152.63 565.6 152.57" style="fill:#fff;stroke:#263238;stroke-linecap:round;stroke-linejoin:round"></polygon><polygon points="564.91 176.47 564.15 202.08 566.12 205.91 568.75 201.32 565.9 174.93 564.91 176.47" style="fill:#0000FF;stroke:#263238;stroke-linecap:round;stroke-linejoin:round"></polygon><path d="M574.73,158.08a10,10,0,0,0-3.58-.41c-4.13.4-9.94,9.64-10.31,9.83s-8.12,7.6-8.12,7.6l-21.41-3-6-7.31a16.48,16.48,0,0,1-2.77-1.45c-.65-.55-.85-1.83-1.67-1.18s-1.27,1.48-1,2.12a7.32,7.32,0,0,0,1.39,1.64l.56.83s-6.54-.37-7,.05-.64,1.21-.29,1.43,4.07.67,5.41,1c0,.07-6.86.2-7,.58s-.21,1.07.07,1.21,6.19,1.14,6.19,1.14a34.84,34.84,0,0,0-4.7.92.7.7,0,0,0,.15,1,47.46,47.46,0,0,0,5.47,0s-3.7.78-3.41,1.21.43.57.71.64,10.74,1.56,10.74,1.56v-.09l1.33.33s25.2,8.45,26.22,8.63a9.05,9.05,0,0,0,3.67-.58c.64-.28,11.51-9.65,11.51-9.65l.1-.51" style="fill:#fff;stroke:#263238;stroke-linecap:round;stroke-linejoin:round"></path><line x1="571.78" y1="174.74" x2="578.05" y2="170.46" style="fill:none;stroke:#263238;stroke-linecap:round;stroke-linejoin:round"></line><line x1="572.57" y1="175.04" x2="578.71" y2="172.6" style="fill:none;stroke:#263238;stroke-linecap:round;stroke-linejoin:round"></line><path d="M546.12,154.44s.59,2.93,1.4,2.95,3.4-1.46,3.4-1.46l2.06.79s1.08-.59-.1-1.72-1.85-1-1.74-2,2.44-4.17,4-2.3a11.43,11.43,0,0,1,2,4.69l4.55-2.9s-3.6-7.25-5.25-8.55-6-1.81-9.07-.51-5.94,2.34-7.39,6.55-1.56,8-.62,8.15,2.47-5.26,2.87-5.77S546.12,154.44,546.12,154.44Z" style="fill:#263238;stroke:#263238;stroke-linecap:round;stroke-linejoin:round"></path><path d="M548.26,160.64c.5.39.74.9.55,1.15s-.75.13-1.25-.26-.73-.89-.54-1.14S547.77,160.26,548.26,160.64Z" style="fill:#263238"></path><path d="M545.05,160.8s-.45-1.79,1.24-2.11" style="fill:none;stroke:#263238;stroke-linecap:round;stroke-linejoin:round"></path><path d="M553.44,164.28a1.69,1.69,0,0,0,.5-2.48" style="fill:none;stroke:#263238;stroke-linecap:round;stroke-linejoin:round"></path><polygon points="551.74 174.06 558.5 186.97 563.13 184.21 555.7 172.43 551.74 174.06" style="fill:#fff;stroke:#263238;stroke-linecap:round;stroke-linejoin:round"></polygon><path d="M575,184.24a48.85,48.85,0,0,0,19.15,4.16" style="fill:none;stroke:#263238;stroke-linecap:round;stroke-linejoin:round"></path><path d="M581.55,189.49s8.21,2.52,12.37,1" style="fill:none;stroke:#263238;stroke-linecap:round;stroke-linejoin:round"></path><polygon points="673.96 401.57 670.95 404.58 550.88 310.38 553.89 307.38 673.96 401.57" style="fill:#fff;stroke:#263238;stroke-linecap:round;stroke-linejoin:round"></polygon><polygon points="550.88 401.57 553.89 404.58 673.96 310.38 670.95 307.38 550.88 401.57" style="fill:#fff;stroke:#263238;stroke-linecap:round;stroke-linejoin:round"></polygon><rect x="672.25" y="279.62" width="4.25" height="187.12" style="fill:#fff;stroke:#263238;stroke-linecap:round;stroke-linejoin:round"></rect><rect x="551.35" y="279.62" width="4.25" height="187.12" style="fill:#fff;stroke:#263238;stroke-linecap:round;stroke-linejoin:round"></rect><rect x="610.61" y="248.73" width="4.25" height="118.89" transform="translate(304.56 920.91) rotate(-90)" style="fill:#fff;stroke:#263238;stroke-linecap:round;stroke-linejoin:round"></rect><rect x="610.61" y="344.72" width="4.25" height="118.89" transform="translate(208.57 1016.9) rotate(-90)" style="fill:#fff;stroke:#263238;stroke-linecap:round;stroke-linejoin:round"></rect><polygon points="655.3 401.57 652.29 404.58 532.23 310.38 535.24 307.38 655.3 401.57" style="fill:#fff;stroke:#263238;stroke-linecap:round;stroke-linejoin:round"></polygon><polygon points="532.23 401.57 535.24 404.58 655.3 310.38 652.29 307.38 532.23 401.57" style="fill:#fff;stroke:#263238;stroke-linecap:round;stroke-linejoin:round"></polygon><rect x="591.95" y="248.73" width="4.25" height="118.89" transform="translate(285.91 902.25) rotate(-90)" style="fill:#fff;stroke:#263238;stroke-linecap:round;stroke-linejoin:round"></rect><rect x="591.95" y="344.72" width="4.25" height="118.89" transform="translate(189.91 998.25) rotate(-90)" style="fill:#fff;stroke:#263238;stroke-linecap:round;stroke-linejoin:round"></rect><rect x="530.69" y="279.62" width="4.25" height="187.12" style="fill:#fff;stroke:#263238;stroke-linecap:round;stroke-linejoin:round"></rect><rect x="653.41" y="279.62" width="4.25" height="187.12" style="fill:#fff;stroke:#263238;stroke-linecap:round;stroke-linejoin:round"></rect><rect x="523.38" y="274.31" width="160.32" height="8.12" style="fill:#263238;stroke:#263238;stroke-linecap:round;stroke-linejoin:round"></rect></g><g id="freepik--character-1--inject-68"><polygon points="167.61 346.95 188.06 355.55 209.6 351.66 210.01 355.34 188.68 363.53 165.36 353.3 167.61 346.95" style="fill:#fff;stroke:#263238;stroke-linecap:round;stroke-linejoin:round"></polygon><path d="M185.42,325.08s4.23,1.83,3.88,4.11-2.28,2.86-3.2,4.11-.8.58-.8.58l-.8-7.09S184.39,324.05,185.42,325.08Z" style="fill:#263238;stroke:#263238;stroke-linecap:round;stroke-linejoin:round"></path><path d="M168.17,319.82a7.64,7.64,0,0,0-6.29-2.4c-4.22.23-6,2.75-6,5.72s.46,2.05-5.83,3.88-6.28,4.23-6.4,5.48-1.6,1.26-3.54,3.43-2.06,8.86,5,11.38,12.95-1.55,14.21-6.81,0-6.62,1.57-8.11,0-3.77.68-6.51,4.46-3.89,5.71-4.11S168.4,320.85,168.17,319.82Z" style="fill:#263238;stroke:#263238;stroke-linecap:round;stroke-linejoin:round"></path><path d="M164.26,338.09s-12.43,6.9-15.48,11-4.5,20.06-4.5,20.06l15,9.61s10.15-10.37,11-13.42-1.08-20.11-1.08-20.11Z" style="fill:#fff;stroke:#263238;stroke-linecap:round;stroke-linejoin:round"></path><path d="M182.67,323.1c-6.88-5.8-17-1.76-17.81,2.12a29.53,29.53,0,0,0-.57,7.19l.57,5.1-.6.58-2.57,1.21,6.6,12.61,3.88-9.24s4.72,2.74,5.48,2.74,5-5.36,5-5.36,1.33.93,1.75.83.5-5.49.5-5.49a29.28,29.28,0,0,0,1.34-6.8C186.39,325.45,182.67,323.1,182.67,323.1Z" style="fill:#fff;stroke:#263238;stroke-linecap:round;stroke-linejoin:round"></path><path d="M181.28,334.92c-.14.65,0,1.24.34,1.3s.7-.4.84-1.05,0-1.24-.35-1.3S181.41,334.27,181.28,334.92Z" style="fill:#263238"></path><path d="M184,332.85a1.77,1.77,0,0,0-2.46-.86" style="fill:none;stroke:#263238;stroke-linecap:round;stroke-linejoin:round"></path><path d="M179.59,341.42a1.81,1.81,0,0,1-2.12-1.67" style="fill:none;stroke:#263238;stroke-linecap:round;stroke-linejoin:round"></path><path d="M186.56,327.48s2.51-2.17-3-5.6-12.34-4-16.22-1.37a9.17,9.17,0,0,0-3.66,10.05c.8,3.09-.11,5.14,1.49,6.17s6.05-1.14,6.62-3.2.69-3.08,2.4-2.85,2.3,2.86,2.3,2.86,4-3.32,6.38-3.78A6.12,6.12,0,0,0,186.56,327.48Z" style="fill:#263238;stroke:#263238;stroke-linecap:round;stroke-linejoin:round"></path><path d="M144.28,369.11s-15,11.64-16.36,18.64-7.16,39.74-7.16,39.74S109.3,456,109.3,456.8s4.81,1.8,4.81,1.8,17.21-25.06,17.81-25.86,11.23-27.64,11.23-27.64L153.49,428l8,31.56,5.21-1,.53-36L157,384.85l2.25-6.13Z" style="fill:#263238;stroke:#263238;stroke-linecap:round;stroke-linejoin:round"></path><path d="M116,456.64s2,5.6,2.53,6.08,3.35,2.72,3.19,3.52-7.67.48-9.43.32-5.6-4.48-6.08-5.76,2.4-5.44,3.84-6.4S116,456.64,116,456.64Z" style="fill:#fff;stroke:#263238;stroke-linecap:round;stroke-linejoin:round"></path><path d="M167,456.8l4.13,3.74s7.09,2.75,7.09,3.35-1.4,1.64-5.6,2.24a35,35,0,0,1-12-.77c-1.6-.61,1-5.81,1-5.81Z" style="fill:#fff;stroke:#263238;stroke-linecap:round;stroke-linejoin:round"></path><path d="M155.12,355c.51,2.22,1,1.78,2.91,3,3.83,2.48,27.41,10.18,27.41,10.18l24.24-10.07,4.82-1,1.61.37a2.32,2.32,0,0,0,1.73-.49c.49-.37-2.1-1.49-2.1-1.49a24.35,24.35,0,0,0,4.08-.12c1-.25,1.11-1.23.61-1.23s-4.57-.5-4.57-.5,5.19-1.48,5.44-1.85-.5-1.24-1.24-1.24-5.43.74-5.43.74l1.48-1.11a16,16,0,0,0,3.83-1.6.69.69,0,0,0-.12-1.24l-3,.37-4.57,1.73.49-1.23a3.88,3.88,0,0,0,1.36-2.23c.13-1.23-1.23,0-1.23,0l-4.08,3.83-1.11,4L186,359.75l-22-13.22-.74-.25" style="fill:#fff;stroke:#263238;stroke-linecap:round;stroke-linejoin:round"></path><path d="M153.5,357.89l7.79,4.82L170.38,350s-8-5.36-8.85-5.48-3.83-.74-5.56,2" style="fill:#fff;stroke:#263238;stroke-linecap:round;stroke-linejoin:round"></path></g></svg>
